<svg width="260" height="467" viewBox="0 0 260 467" fill="none" xmlns="http://www.w3.org/2000/svg">
<path d="M38.3138 245.434L2.64215e-06 245.434L3.13939e-07 440.674C1.22971e-07 456.688 7.43738 467 20.0584 467C32.6795 467 41.2438 458.005 41.2438 441.113C41.2438 398.335 13.2971 369.817 13.2971 265.614C26.3689 317.386 93.3056 378.812 130.943 378.812C136.921 378.812 142.653 376.501 146.88 372.387C151.106 368.273 153.481 362.692 153.481 356.874C153.481 340.86 135.451 333.402 125.084 330.111C34.9332 300.496 27.4959 277.241 24.1152 260.569C152.354 260.569 183.681 304.444 231.236 304.444C266.845 304.444 278.79 245.214 211.403 245.214L38.3138 245.434Z" fill="#FF7BB6"/>
<path d="M38.3138 221.567L2.90493e-09 221.567L2.58578e-06 26.5171C2.80053e-06 10.2995 7.43738 2.78298e-05 20.0584 2.79641e-05C32.6795 2.80984e-05 41.2438 8.98414 41.2438 26.0783C41.2438 69.9096 13.2971 97.3041 13.2971 201.403C26.3689 149.902 93.3056 88.3206 130.943 88.3206C136.921 88.3206 142.653 90.6286 146.88 94.7385C151.106 98.8485 153.481 104.424 153.481 110.236C153.481 126.235 135.451 133.686 125.084 137.192C34.9332 166.778 27.4959 189.79 24.1152 206.446C152.354 206.446 183.681 162.615 231.236 162.615C266.845 162.615 278.79 221.786 211.403 221.786L38.3138 221.567Z" fill="#FF7BB6"/>
</svg>
