<svg width="140" height="140" viewBox="0 0 140 140" fill="none" xmlns="http://www.w3.org/2000/svg">
<path d="M55.6961 60.2757C56.339 60.71 57.1011 60.9338 57.8767 60.9159C59.0353 60.9159 60.1466 60.457 60.9677 59.6397C61.7888 58.8224 62.2527 57.7132 62.258 56.5547C62.2741 55.4985 61.8878 54.4758 61.1776 53.6939C67.3194 42.5508 64.6787 26.7864 53.7155 14.9831C42.0922 2.07957 24.7671 -1.42139 13.1437 5.58055C12.372 5.02842 11.4517 4.72167 10.503 4.7003C9.34267 4.70556 8.23134 5.16886 7.41083 5.98935C6.59032 6.80985 6.12703 7.92117 6.12176 9.08152C6.10731 9.92846 6.33649 10.7617 6.78199 11.4822C-1.34036 22.4252 0.780196 39.9301 12.7837 52.6136C25.2072 66.2774 44.2728 69.6383 55.6961 60.2757ZM31.129 16.0835H22.4465C22.4517 14.9231 22.915 13.8118 23.7355 12.9913C24.5561 12.1708 25.6674 11.7075 26.8277 11.7022C27.9673 11.728 29.0524 12.1949 29.8546 13.0046C30.6569 13.8143 31.1138 14.9037 31.129 16.0434V16.0835ZM37.4909 28.5469H28.7083C28.7136 27.3866 29.1769 26.2752 29.9974 25.4547C30.8179 24.6342 31.9292 24.1709 33.0896 24.1657C34.2465 24.1656 35.357 24.621 36.1807 25.4335C37.0044 26.2459 37.4751 27.3501 37.4909 28.5069V28.5469ZM50.6347 23.9456H41.8721C41.8774 22.7871 42.3413 21.6779 43.1624 20.8606C43.9835 20.0433 45.0949 19.5844 46.2534 19.5844C47.4051 19.5843 48.5104 20.0376 49.3303 20.8463C50.1503 21.655 50.6189 22.7541 50.6347 23.9056V23.9456ZM55.0358 40.1301H46.2534C46.2587 38.9716 46.7226 37.8624 47.5437 37.045C48.3648 36.2277 49.4761 35.7689 50.6347 35.7689C51.7882 35.7687 52.8957 36.2214 53.7188 37.0296C54.5419 37.8377 55.0149 38.9368 55.0358 40.0901V40.1301ZM37.4909 59.8356C37.4909 58.6736 37.9524 57.5592 38.7741 56.7376C39.5957 55.916 40.7101 55.4544 41.8721 55.4544C43.0325 55.4596 44.1438 55.9229 44.9643 56.7434C45.7848 57.5639 46.2481 58.6752 46.2534 59.8356H37.4909ZM31.129 51.0731C31.1343 49.9146 31.5983 48.8054 32.4193 47.9881C33.2404 47.1708 34.3518 46.7119 35.5103 46.7119C36.6688 46.7119 37.7801 47.1708 38.6012 47.9881C39.4222 48.8054 39.8862 49.9146 39.8914 51.0731H31.129ZM19.9458 42.2707C19.951 41.1104 20.4143 39.999 21.2348 39.1785C22.0553 38.358 23.1667 37.8948 24.327 37.8895C25.4874 37.8948 26.5987 38.358 27.4192 39.1785C28.2397 39.999 28.703 41.1104 28.7083 42.2707H19.9458ZM16.8649 28.4869H8.10231C8.10758 27.3265 8.57087 26.2152 9.39138 25.3947C10.2119 24.5742 11.3233 24.1109 12.4836 24.1057C13.0652 24.089 13.644 24.1915 14.1845 24.4071C14.7249 24.6226 15.2155 24.9465 15.626 25.3589C16.0365 25.7712 16.3582 26.2632 16.5712 26.8047C16.7843 27.3461 16.8843 27.9254 16.8649 28.5069V28.4869Z" fill="#6763FF"/>
<path d="M127.315 52.5759C139.159 39.8924 141.319 22.3875 133.317 11.4445C133.762 10.724 133.992 9.89074 133.977 9.0438C133.972 7.87999 133.506 6.76565 132.681 5.94458C131.856 5.12352 130.74 4.66257 129.576 4.66258C128.633 4.68297 127.719 4.99001 126.955 5.54283C115.332 -1.45911 98.0068 2.04185 86.3635 14.9454C75.4003 26.7487 72.7795 42.5131 78.9212 53.6562C78.2056 54.4361 77.8124 55.4585 77.821 56.517C77.8262 57.6755 78.2902 58.7847 79.1112 59.602C79.9323 60.4193 81.0437 60.8782 82.2022 60.8782C82.9838 60.8937 83.7515 60.6703 84.4028 60.238C95.7261 69.6406 114.812 66.2797 127.315 52.5759ZM113.311 11.6645C114.473 11.6645 115.588 12.1261 116.409 12.9477C117.231 13.7694 117.692 14.8838 117.692 16.0457H108.93C108.93 14.8907 109.386 13.7823 110.199 12.9618C111.012 12.1413 112.116 11.6751 113.271 11.6645H113.311ZM106.949 24.128C108.11 24.1332 109.221 24.5965 110.042 25.417C110.862 26.2375 111.325 27.3489 111.331 28.5092H102.468C102.471 27.9295 102.588 27.3561 102.813 26.8218C103.038 26.2875 103.366 25.8029 103.778 25.3958C104.191 24.9887 104.68 24.6671 105.217 24.4496C105.755 24.232 106.33 24.1227 106.909 24.128H106.949ZM93.7855 19.5467C94.9459 19.5467 96.0594 20.0049 96.8837 20.8216C97.708 21.6384 98.1763 22.7476 98.1868 23.9079H89.4043C89.4095 22.7563 89.8679 21.6531 90.6804 20.8369C91.4928 20.0207 92.594 19.5572 93.7456 19.5467H93.7855ZM89.4043 35.7312C90.5628 35.7312 91.6742 36.19 92.4952 37.0073C93.3163 37.8247 93.7802 38.9339 93.7855 40.0924H85.0231C85.0283 38.9408 85.4867 37.8376 86.2991 37.0214C87.1116 36.2052 88.2127 35.7417 89.3643 35.7312H89.4043ZM93.7855 59.7379C93.7908 58.574 94.2568 57.4597 95.0817 56.6386C95.9065 55.8176 97.023 55.3566 98.1868 55.3566C99.3472 55.3619 100.459 55.8252 101.279 56.6457C102.1 57.4662 102.563 58.5775 102.568 59.7379H93.7855ZM100.147 50.9754C100.168 49.8377 100.631 48.7526 101.437 47.9499C102.244 47.1471 103.331 46.6896 104.469 46.6742C105.629 46.6742 106.742 47.1324 107.567 47.9491C108.391 48.7659 108.859 49.8751 108.87 51.0354L100.147 50.9754ZM111.331 42.233C111.336 41.0692 111.802 39.9549 112.627 39.1338C113.452 38.3127 114.568 37.8518 115.732 37.8518C116.892 37.8676 117.999 38.341 118.812 39.169C119.625 39.997 120.079 41.1126 120.073 42.273L111.331 42.233ZM127.575 24.068C128.736 24.0732 129.847 24.5365 130.667 25.357C131.488 26.1775 131.951 27.2888 131.957 28.4492H123.174C123.169 27.8768 123.278 27.3092 123.496 26.7798C123.713 26.2504 124.035 25.7701 124.442 25.3672C124.848 24.9644 125.332 24.6471 125.863 24.4343C126.394 24.2214 126.963 24.1172 127.535 24.128L127.575 24.068Z" fill="#6763FF"/>
<path d="M84.3233 79.7643C83.6778 79.3176 82.9076 79.0865 82.1228 79.1041C80.9624 79.1094 79.8511 79.5726 79.0306 80.3931C78.21 81.2136 77.7468 82.325 77.7415 83.4853C77.734 84.5376 78.1274 85.5534 78.8418 86.3261C72.7 97.4892 75.3207 113.234 86.3039 125.057C97.9272 137.96 115.252 141.461 126.876 134.459C127.64 135.012 128.554 135.319 129.496 135.34C130.66 135.34 131.777 134.879 132.602 134.058C133.426 133.237 133.892 132.122 133.898 130.958C133.918 130.111 133.688 129.276 133.237 128.558C141.24 117.615 139.239 100.11 127.236 87.4264C114.812 73.6426 95.7266 70.2816 84.3233 79.7643ZM108.89 123.957H117.653C117.637 125.11 117.169 126.211 116.35 127.023C115.531 127.835 114.425 128.293 113.272 128.298C112.118 128.293 111.013 127.835 110.193 127.023C109.374 126.211 108.906 125.11 108.89 123.957ZM102.469 111.493H111.231C111.226 112.652 110.762 113.761 109.941 114.578C109.12 115.395 108.008 115.854 106.85 115.854C105.691 115.854 104.58 115.395 103.759 114.578C102.938 113.761 102.474 112.652 102.469 111.493V111.493ZM89.3048 116.074H98.0873C98.082 117.238 97.616 118.352 96.7912 119.174C95.9663 119.995 94.8499 120.456 93.686 120.456C92.5361 120.435 91.4402 119.964 90.6325 119.146C89.8249 118.327 89.3699 117.224 89.3648 116.074H89.3048ZM84.9235 99.8899H93.686C93.6862 101.043 93.2336 102.151 92.4254 102.974C91.6172 103.797 90.5182 104.27 89.3648 104.291C88.201 104.286 87.0866 103.82 86.2656 102.995C85.4445 102.17 84.9836 101.054 84.9836 99.8899H84.9235ZM102.469 80.2844C102.463 81.4448 102 82.5561 101.18 83.3766C100.359 84.1971 99.2477 84.6604 98.0873 84.6656C96.9235 84.6657 95.807 84.2047 94.9822 83.3836C94.1574 82.5626 93.6913 81.4482 93.686 80.2844H102.469ZM108.83 89.0269C108.825 90.1907 108.359 91.305 107.534 92.1261C106.709 92.9471 105.593 93.4081 104.429 93.4081C103.269 93.4028 102.157 92.9395 101.337 92.119C100.516 91.2985 100.053 90.1872 100.048 89.0269H108.83ZM120.014 97.7893C120.008 98.9478 119.544 100.057 118.723 100.874C117.902 101.692 116.791 102.15 115.632 102.15C114.472 102.151 113.358 101.692 112.534 100.876C111.71 100.059 111.242 98.9496 111.231 97.7893H120.014ZM123.075 111.573H131.857C131.852 112.732 131.388 113.841 130.567 114.658C129.746 115.475 128.634 115.934 127.476 115.934C126.894 115.946 126.316 115.838 125.778 115.617C125.239 115.397 124.751 115.069 124.345 114.653C123.938 114.236 123.621 113.741 123.413 113.198C123.204 112.655 123.11 112.074 123.135 111.493L123.075 111.573Z" fill="#6763FF"/>
<path d="M67.3178 68.4763C68.7365 67.7086 69.26 65.9282 68.487 64.4998C67.714 63.0714 65.9372 62.5358 64.5185 63.3035C63.0997 64.0713 62.5763 65.8516 63.3493 67.28C64.1224 68.7084 65.899 69.2441 67.3178 68.4763Z" fill="#6763FF"/>
<path d="M76.5725 67.2892C77.3448 65.8604 76.8204 64.0802 75.4013 63.3133C73.9822 62.5463 72.2057 63.0828 71.4334 64.5117C70.6612 65.9405 71.1856 67.7205 72.6047 68.4875C74.0238 69.2545 75.8003 68.718 76.5725 67.2892Z" fill="#6763FF"/>
<path d="M75.4419 76.6401C76.8606 75.8724 77.3841 74.092 76.6111 72.6636C75.8381 71.2351 74.0613 70.6996 72.6426 71.4673C71.2239 72.235 70.7004 74.0154 71.4734 75.4438C72.2464 76.8722 74.0232 77.4078 75.4419 76.6401Z" fill="#6763FF"/>
<path d="M68.4187 75.4547C69.191 74.0259 68.6666 72.2458 67.2475 71.4788C65.8284 70.7118 64.0519 71.2484 63.2796 72.6772C62.5074 74.106 63.0318 75.886 64.4509 76.653C65.87 77.42 67.6465 76.8836 68.4187 75.4547Z" fill="#6763FF"/>
<path d="M12.705 87.4264C0.861558 100.11 -1.29906 117.615 6.70324 128.558C6.25241 129.276 6.02278 130.111 6.04302 130.958C6.04831 132.122 6.51434 133.237 7.33917 134.058C8.16399 134.879 9.28048 135.34 10.4443 135.34C11.393 135.318 12.3133 135.012 13.0851 134.459C24.7084 141.461 42.0334 137.96 53.6567 125.057C64.6199 113.234 67.2607 97.4892 61.119 86.3261C61.8278 85.5514 62.2142 84.5353 62.1992 83.4853C62.194 82.325 61.7307 81.2136 60.9102 80.3931C60.0896 79.5726 58.9783 79.1094 57.818 79.1041C57.039 79.0838 56.2743 79.3153 55.6374 79.7643C44.2741 70.2816 25.2086 73.6426 12.705 87.4264ZM26.709 128.338C25.5696 128.301 24.4887 127.825 23.6939 127.007C22.899 126.19 22.4524 125.096 22.4478 123.957H31.2303C31.2226 124.538 31.0996 125.112 30.8687 125.646C30.6377 126.179 30.3033 126.662 29.8847 127.066C29.4662 127.469 28.9719 127.786 28.4302 127.997C27.8886 128.209 27.3104 128.311 26.729 128.298L26.709 128.338ZM33.0708 115.854C31.9123 115.854 30.8009 115.395 29.9799 114.578C29.1588 113.761 28.6949 112.652 28.6896 111.493H37.4721C37.4616 112.65 36.996 113.756 36.1761 114.572C35.3561 115.389 34.2478 115.849 33.0909 115.854H33.0708ZM46.2347 120.456C45.0743 120.45 43.963 119.987 43.1425 119.167C42.3219 118.346 41.8587 117.235 41.8534 116.074H50.6159C50.6159 117.233 50.157 118.344 49.3397 119.165C48.5224 119.986 47.4132 120.45 46.2547 120.456H46.2347ZM50.6359 104.291C49.4756 104.286 48.3643 103.823 47.5437 103.002C46.7232 102.182 46.2599 101.07 46.2547 99.9099H55.0371C55.0318 101.074 54.5658 102.188 53.741 103.009C52.9161 103.83 51.7998 104.291 50.6359 104.291V104.291ZM46.2547 80.2844C46.2494 81.4448 45.7861 82.5561 44.9656 83.3766C44.1451 84.1971 43.0338 84.6604 41.8734 84.6656C40.7131 84.6604 39.6017 84.1971 38.7812 83.3766C37.9607 82.5561 37.4974 81.4448 37.4921 80.2844H46.2547ZM39.8927 89.0269C39.8927 90.1888 39.4312 91.3032 38.6095 92.1248C37.7879 92.9465 36.6736 93.4081 35.5116 93.4081C34.3496 93.4081 33.2352 92.9465 32.4135 92.1248C31.5919 91.3032 31.1303 90.1888 31.1303 89.0269H39.8927ZM28.7096 97.7893C28.7043 98.9478 28.2404 100.057 27.4193 100.874C26.5982 101.692 25.4868 102.15 24.3283 102.15C23.1698 102.15 22.0584 101.692 21.2373 100.874C20.4163 100.057 19.9523 98.9478 19.9471 97.7893H28.7096ZM12.4449 115.854C11.2864 115.854 10.175 115.395 9.35391 114.578C8.53284 113.761 8.06891 112.652 8.06362 111.493H16.8262C16.84 112.071 16.736 112.646 16.5204 113.183C16.3049 113.72 15.9823 114.207 15.5724 114.615C15.1625 115.023 14.6738 115.343 14.1362 115.556C13.5985 115.769 13.023 115.871 12.4449 115.854V115.854Z" fill="#6763FF"/>
<path d="M68.8586 136.598V139.999H51.0334C49.573 139.999 48.6328 139.339 48.6328 138.219C48.6328 137.099 49.453 136.338 50.9935 136.338C54.9946 136.338 57.5154 138.819 66.9981 138.819C62.2967 137.659 56.675 131.717 56.675 128.376C56.675 127.846 56.8859 127.337 57.261 126.962C57.6362 126.586 58.145 126.376 58.6756 126.376C60.136 126.376 60.8163 127.976 61.1364 128.896C63.8372 136.899 65.9377 137.559 67.4582 137.859C67.4582 126.476 63.457 123.695 63.457 119.474C63.457 116.313 68.8586 115.253 68.8586 121.234V136.598Z" fill="#6763FF"/>
<path d="M71.1571 136.599V140H88.9623C90.4227 140 91.363 139.34 91.363 138.219C91.363 137.099 90.4628 136.299 89.0023 136.299C85.1012 136.299 82.5005 138.78 72.9977 138.78C77.7191 137.619 83.3206 131.678 83.3206 128.337C83.3206 127.806 83.1098 127.297 82.7347 126.922C82.3595 126.547 81.8507 126.336 81.3201 126.336C79.8597 126.336 79.1795 127.937 78.8794 128.857C76.1786 136.859 74.058 137.519 72.5375 137.819C72.5375 126.436 76.5387 123.655 76.5387 119.434C76.5387 116.273 71.1372 115.213 71.1372 121.195L71.1571 136.599Z" fill="#6763FF"/>
<path d="M68.8586 3.38094V0H51.0334C49.573 0 48.6328 0.660182 48.6328 1.78049C48.6328 2.9008 49.453 3.66102 50.9935 3.66102C54.9946 3.66102 57.5154 1.18035 66.9981 1.18035C62.2967 2.32067 56.675 8.26228 56.675 11.6232C56.675 12.1538 56.8859 12.6626 57.261 13.0378C57.6362 13.413 58.145 13.6238 58.6756 13.6238C60.136 13.6238 60.8163 12.0233 61.1364 11.1031C63.8372 3.10086 65.9377 2.44069 67.4582 2.14061C67.4582 13.5038 63.457 16.3045 63.457 20.5057C63.457 23.6666 68.8586 24.7469 68.8586 18.7652V3.38094Z" fill="#6763FF"/>
<path d="M71.1571 3.38094V0H88.9623C90.4227 0 91.363 0.660182 91.363 1.78049C91.363 2.9008 90.5428 3.66102 89.0023 3.66102C85.1012 3.66102 82.5005 1.18035 72.9977 1.18035C77.7191 2.32067 83.3206 8.26228 83.3206 11.6232C83.3206 12.1538 83.1098 12.6626 82.7347 13.0378C82.3595 13.413 81.8507 13.6238 81.3201 13.6238C79.8597 13.6238 79.1795 12.0233 78.8794 11.1031C76.1786 3.10086 74.058 2.44069 72.5375 2.14061C72.5375 13.5038 76.5387 16.3045 76.5387 20.5057C76.5387 23.6666 71.1372 24.7469 71.1372 18.7652L71.1571 3.38094Z" fill="#6763FF"/>
<path d="M3.401 68.8391H0V51.0342C0 49.5738 0.66022 48.6335 1.78054 48.6335C2.90087 48.6335 3.66103 49.4538 3.66103 50.9942C3.66103 54.9953 1.18033 57.496 1.18033 66.9986C2.34067 62.2773 8.28238 56.6758 11.6233 56.6758C12.1539 56.6758 12.6628 56.8865 13.038 57.2617C13.4132 57.6369 13.624 58.1457 13.624 58.6763C13.624 60.1367 12.0234 60.8169 11.1032 61.117C3.10087 63.8177 2.44072 65.9383 2.14063 67.4588C13.5239 67.4588 16.3047 63.4576 20.5259 63.4576C23.6868 63.4576 24.7471 68.8592 18.7654 68.8592L3.401 68.8391Z" fill="#6763FF"/>
<path d="M3.401 71.14H0V88.9649C0 90.4254 0.66022 91.3656 1.78054 91.3656C2.90087 91.3656 3.66103 90.5454 3.66103 89.005C3.66103 85.0039 1.18033 82.4832 1.18033 73.0005C2.34067 77.7018 8.28238 83.3234 11.6233 83.3234C12.1539 83.3234 12.6628 83.1126 13.038 82.7374C13.4132 82.3623 13.624 81.8534 13.624 81.3228C13.624 79.8624 12.0234 79.1822 11.1032 78.8622C3.10087 76.1614 2.44072 74.0608 2.14063 72.5404C13.5239 72.5404 16.3047 76.5415 20.5259 76.5415C23.6868 76.5415 24.7471 71.14 18.7654 71.14H3.401Z" fill="#6763FF"/>
<path d="M136.619 68.8391H140V51.0342C140 49.5738 139.34 48.6335 138.219 48.6335C137.099 48.6335 136.339 49.4538 136.339 50.9942C136.339 54.9953 138.819 57.496 138.819 66.9986C137.679 62.2773 131.737 56.6758 128.376 56.6758C127.846 56.6758 127.337 56.8865 126.962 57.2617C126.587 57.6369 126.376 58.1457 126.376 58.6763C126.376 60.1367 127.976 60.8169 128.897 61.117C136.899 63.8177 137.559 65.9383 137.859 67.4588C126.496 67.4588 123.695 63.4576 119.494 63.4576C116.333 63.4576 115.253 68.8592 121.234 68.8592L136.619 68.8391Z" fill="#6763FF"/>
<path d="M136.619 71.1395H140V88.9645C140 90.4249 139.34 91.3651 138.219 91.3651C137.099 91.3651 136.339 90.5449 136.339 89.0045C136.339 85.0034 138.819 82.4827 138.819 73C137.679 77.7013 131.737 83.3229 128.376 83.3229C127.846 83.3229 127.337 83.1121 126.962 82.7369C126.587 82.3618 126.376 81.8529 126.376 81.3223C126.376 79.8619 127.976 79.1818 128.897 78.8617C136.899 76.1609 137.559 74.0603 137.859 72.5399C126.496 72.5399 123.695 76.541 119.494 76.541C116.333 76.541 115.253 71.1395 121.234 71.1395H136.619Z" fill="#6763FF"/>
</svg>
