<svg width="140" height="140" viewBox="0 0 140 140" fill="none" xmlns="http://www.w3.org/2000/svg">
<path d="M67.266 68.4341C68.6847 67.6664 69.2081 65.8861 68.4351 64.4576C67.6621 63.0292 65.8854 62.4936 64.4667 63.2613C63.048 64.029 62.5246 65.8093 63.2976 67.2378C64.0706 68.6662 65.8473 69.2018 67.266 68.4341Z" fill="#6763FF"/>
<path d="M15.8212 53.6153C15.81 54.1094 15.9042 54.6002 16.0974 55.0551C16.2906 55.51 16.5785 55.9185 16.9419 56.2535C17.3053 56.5885 17.7359 56.8422 18.205 56.9979C18.674 57.1536 19.1709 57.2076 19.6624 57.1563C23.8036 57.1563 27.4047 51.9949 29.2252 48.6139C31.5059 45.353 33.8464 42.1121 37.8276 42.1321C43.0091 42.1321 48.4709 51.0746 50.2514 53.5553C52.552 57.4164 55.1928 61.4175 58.9939 61.4375C60.1728 61.4318 61.307 60.9852 62.1733 60.1855C63.0396 59.3858 63.5753 58.291 63.6752 57.1163C63.6752 53.5153 60.7743 52.1149 56.153 50.1744C50.0312 47.1735 39.7683 43.7526 43.7495 32.8895C47.9707 22.8867 56.8932 23.847 57.1733 18.5455C57.1733 15.3246 53.4723 13.5841 50.2714 16.785C45.51 21.9665 42.2691 33.6097 37.7477 38.171C31.5059 44.3927 15.8012 47.9738 15.8212 53.6153Z" fill="#6763FF"/>
<path d="M37.5314 47.6538C35.2433 50.0688 33.834 53.1833 33.5303 56.4963C33.5565 57.57 34.0027 58.5906 34.7733 59.3388C35.5439 60.087 36.5773 60.503 37.6513 60.4974C38.7045 60.472 39.7075 60.0423 40.4525 59.2974C41.1974 58.5525 41.6271 57.5495 41.6525 56.4963C41.6525 51.815 37.5314 47.6538 37.5314 47.6538Z" fill="#6763FF"/>
<path d="M47.9731 36.5107C47.9731 36.5107 52.8345 39.7717 57.4158 38.9114C58.4864 38.7076 59.4328 38.0879 60.0477 37.1881C60.6626 36.2883 60.8959 35.1816 60.6968 34.1101C60.493 33.0395 59.8732 32.0932 58.9734 31.4783C58.0736 30.8635 56.9669 30.63 55.8954 30.8291C51.314 31.6894 47.9731 36.5107 47.9731 36.5107Z" fill="#6763FF"/>
<path d="M9.36516 9.40326C6.51982 12.2279 4.2617 15.5877 2.72065 19.289C1.1796 22.9903 0.38623 26.96 0.38623 30.9693C0.38623 34.9786 1.1796 38.9483 2.72065 42.6496C4.2617 46.3509 6.51982 49.7107 9.36516 52.5353L52.4778 9.36324C49.6508 6.52356 46.2901 4.27098 42.5892 2.73516C38.8882 1.19934 34.9201 0.410601 30.9132 0.41432C26.9062 0.418038 22.9396 1.21415 19.2416 2.75683C15.5435 4.29952 12.1869 6.55834 9.36516 9.40326V9.40326ZM14.9469 42.9726C14.2111 43.7327 13.2696 44.2618 12.2378 44.4952C11.206 44.7286 10.1286 44.6562 9.13731 44.2869C8.14601 43.9175 7.28387 43.2672 6.65636 42.4156C6.02885 41.564 5.66313 40.5479 5.60405 39.4917C5.60242 38.8266 5.73241 38.1678 5.98649 37.5533C6.24057 36.9387 6.6137 36.3804 7.08446 35.9107C10.2454 32.7498 17.8276 33.67 20.8685 32.7098C21.4279 32.559 21.9309 32.2474 22.315 31.8135C22.699 31.3797 22.9475 30.8427 23.0293 30.2691C23.0359 29.9505 22.9754 29.634 22.8522 29.3401C22.729 29.0462 22.5456 28.7814 22.3137 28.5627C22.0819 28.3441 21.8067 28.1765 21.5061 28.0707C21.2055 27.9649 20.886 27.9232 20.5684 27.9484C17.1474 27.9484 15.8671 32.1296 10.1454 32.1296C6.90447 32.1296 3.98369 30.9693 3.96369 27.4083C3.98121 26.7715 4.12688 26.1447 4.39203 25.5654C4.65719 24.9861 5.03629 24.4662 5.50686 24.0367C5.97742 23.6072 6.52983 23.277 7.13086 23.0657C7.7319 22.8544 8.36939 22.7664 9.00519 22.807C13.3064 22.807 14.0467 26.188 18.528 26.188C19.1682 26.188 21.2087 25.5078 21.2087 24.1874C21.1112 23.5639 20.7888 22.9977 20.3022 22.5959C19.8156 22.1941 19.1984 21.9845 18.5678 22.0068C16.3471 22.0068 14.5667 22.727 12.3861 22.0068C11.2035 21.7395 10.1535 21.0629 9.42132 20.0965C8.68919 19.1301 8.32204 17.9361 8.38489 16.7253C8.31936 15.9527 8.41145 15.1749 8.65572 14.4391C8.89999 13.7033 9.29144 13.0247 9.80596 12.4447C10.3205 11.8647 10.9475 11.3954 11.649 11.0651C12.3505 10.7348 13.1116 10.5506 13.8865 10.5236C22.9091 10.5236 21.4087 22.807 25.3898 22.807C25.7005 22.8287 26.0125 22.7881 26.3073 22.6877C26.6022 22.5873 26.874 22.429 27.1069 22.2222C27.3398 22.0154 27.5291 21.7642 27.6637 21.4833C27.7983 21.2024 27.8753 20.8975 27.8906 20.5864C27.8906 16.4652 21.4888 14.6847 21.4888 9.06314C21.416 7.78971 21.8405 6.53778 22.6727 5.57119C23.505 4.6046 24.6799 3.99887 25.95 3.88169C26.6773 3.81829 27.4097 3.90576 28.1016 4.1386C28.7934 4.37144 29.4296 4.74464 29.9705 5.23482C30.5114 5.72501 30.9452 6.32159 31.2448 6.98724C31.5444 7.65288 31.7035 8.37324 31.7117 9.10316C32.0318 12.204 30.5714 14.3046 30.2513 16.1651C29.9313 18.0257 30.2512 20.7064 32.1117 20.7064C36.453 20.7064 34.2725 12.4441 34.2725 9.32322C34.2197 8.57231 34.3399 7.8193 34.6237 7.1221C34.9076 6.42491 35.3474 5.80211 35.9097 5.30165C36.472 4.80118 37.1417 4.43636 37.8671 4.23528C38.5925 4.0342 39.3543 4.00222 40.094 4.14177C44.5353 4.942 46.456 11.1837 41.9747 15.665C36.9333 20.7064 19.9883 37.9112 14.9469 42.9726V42.9726Z" fill="#6763FF"/>
<path d="M19.1649 19.2464C18.787 16.9952 17.6505 14.9409 15.944 13.4247C15.6414 13.1982 15.2963 13.0348 14.9293 12.9443C14.5624 12.8537 14.1811 12.8378 13.8079 12.8975C13.4347 12.9572 13.0772 13.0913 12.7568 13.2919C12.4364 13.4924 12.1596 13.7553 11.9428 14.0649C11.7126 14.3652 11.5457 14.709 11.452 15.0756C11.3583 15.4423 11.3398 15.8241 11.3978 16.198C11.4557 16.5719 11.589 16.9302 11.7892 17.2513C11.9895 17.5724 12.2526 17.8495 12.5629 18.066C14.566 19.1967 16.8941 19.6129 19.1649 19.2464V19.2464Z" fill="#6763FF"/>
<path d="M38.0523 15.3445C39.9655 14.0645 41.3786 12.1638 42.0534 9.96303C42.1229 9.60037 42.12 9.22756 42.0449 8.86604C41.9697 8.50452 41.8238 8.16143 41.6155 7.85651C41.4073 7.55159 41.141 7.29085 40.8316 7.0893C40.5222 6.88775 40.1759 6.74936 39.8128 6.68211C39.4515 6.60925 39.0796 6.6084 38.718 6.67964C38.3564 6.75087 38.0124 6.89277 37.7057 7.0972C37.3991 7.30164 37.1357 7.56462 36.9308 7.87101C36.726 8.1774 36.5837 8.52119 36.512 8.88271C36.2887 11.1483 36.8309 13.4233 38.0523 15.3445V15.3445Z" fill="#6763FF"/>
<path d="M16.4457 36.0709C14.1996 35.6491 11.8767 36.0092 9.86372 37.0912C9.54693 37.3005 9.27532 37.5711 9.0649 37.8871C8.85449 38.2032 8.70963 38.5582 8.63876 38.9312C8.56788 39.3042 8.57259 39.6876 8.65243 40.0588C8.73227 40.43 8.88553 40.7814 9.10349 41.0923C9.31088 41.4113 9.58075 41.685 9.89669 41.897C10.2126 42.109 10.5681 42.2549 10.9419 42.326C11.3157 42.397 11.7 42.3916 12.0716 42.3103C12.4433 42.2289 12.7947 42.0732 13.1047 41.8525C14.8377 40.3566 16.0151 38.3194 16.4457 36.0709V36.0709Z" fill="#6763FF"/>
<path d="M67.432 68.6968C68.8511 67.9298 69.3754 66.1498 68.6032 64.7209C67.8309 63.2921 66.0545 62.7555 64.6354 63.5225C63.2163 64.2895 62.692 66.0696 63.4642 67.4984C64.2365 68.9272 66.0129 69.4638 67.432 68.6968Z" fill="#6763FF"/>
<path d="M75.3905 76.5789C76.8092 75.8111 77.3329 74.0307 76.5599 72.6023C75.7869 71.1739 74.01 70.6383 72.5912 71.4061C71.1725 72.1738 70.6491 73.9541 71.4221 75.3825C72.1951 76.811 73.9718 77.3466 75.3905 76.5789Z" fill="#6763FF"/>
<path d="M68.3201 75.4083C69.0923 73.9795 68.5679 72.1995 67.1488 71.4325C65.7297 70.6655 63.9532 71.202 63.181 72.6308C62.4087 74.0596 62.9331 75.8397 64.3523 76.6067C65.7714 77.3737 67.5478 76.8372 68.3201 75.4083Z" fill="#6763FF"/>
<path d="M124.176 53.6153C124.187 54.1094 124.093 54.6002 123.9 55.0551C123.707 55.51 123.419 55.9185 123.055 56.2535C122.692 56.5885 122.261 56.8422 121.792 56.9979C121.323 57.1536 120.826 57.2076 120.335 57.1563C116.194 57.1563 112.573 51.9949 110.772 48.6139C108.472 45.353 106.151 42.1121 102.17 42.1321C96.9881 42.1321 91.5266 51.0746 89.7261 53.5553C87.4254 57.4164 84.8047 61.4175 81.0036 61.4375C79.8212 61.4368 78.682 60.9924 77.8115 60.1923C76.9409 59.3921 76.4024 58.2944 76.3022 57.1163C76.3022 53.5153 79.2229 52.1149 83.8242 50.1744C89.946 47.1735 100.229 43.7526 96.228 32.8895C92.0267 22.8867 83.1042 23.847 82.8041 18.5455C82.8041 15.3246 86.5051 13.5841 89.7261 16.785C94.4674 21.9665 97.7284 33.6097 102.23 38.171C108.492 44.3927 124.176 47.9738 124.176 53.6153Z" fill="#6763FF"/>
<path d="M102.448 47.6538C102.448 47.6538 106.57 51.815 106.57 56.4963C106.533 57.5667 106.084 58.5814 105.316 59.3275C104.547 60.0735 103.519 60.4928 102.448 60.4974C101.378 60.4977 100.35 60.0794 99.5834 59.3318C98.8171 58.5842 98.3733 57.5665 98.3472 56.4963C98.6784 53.1708 100.124 50.0548 102.448 47.6538V47.6538Z" fill="#6763FF"/>
<path d="M92.0069 36.5117C89.2265 38.3515 85.9058 39.1975 82.584 38.9124C82.0464 38.8268 81.532 38.6324 81.0721 38.3411C80.6122 38.0499 80.2165 37.6678 79.9094 37.2184C79.6023 36.7689 79.3902 36.2615 79.2859 35.7272C79.1817 35.1929 79.1876 34.6429 79.3033 34.111C79.3891 33.5755 79.5828 33.063 79.8728 32.6047C80.1628 32.1464 80.5428 31.7518 80.99 31.4449C81.4372 31.1381 81.9422 30.9253 82.4741 30.8196C83.0061 30.7139 83.5539 30.7175 84.0844 30.8301C88.6858 31.6903 92.0069 36.5117 92.0069 36.5117Z" fill="#6763FF"/>
<path d="M87.4854 9.36117L130.618 52.5333C133.461 49.7072 135.717 46.347 137.256 42.6459C138.796 38.9448 139.589 34.9758 139.589 30.9672C139.589 26.9587 138.796 22.9897 137.256 19.2885C135.717 15.5874 133.461 12.2272 130.618 9.40119C127.794 6.55565 124.436 4.2964 120.736 2.75345C117.037 1.21049 113.069 0.414254 109.06 0.410536C105.051 0.406817 101.081 1.19571 97.3788 2.7318C93.6763 4.26789 90.314 6.52088 87.4854 9.36117V9.36117ZM97.9684 15.6029C93.5071 11.1216 95.4075 4.87991 99.8688 4.07969C100.609 3.94013 101.37 3.97211 102.096 4.17319C102.821 4.37427 103.491 4.73909 104.053 5.23956C104.615 5.74003 105.056 6.36282 105.339 7.06001C105.623 7.75721 105.743 8.51022 105.691 9.26113C105.691 12.382 103.49 20.6443 107.851 20.6443C109.652 20.6443 110.172 18.1636 109.712 16.103C109.252 14.0425 107.931 12.1019 108.231 9.04107C108.242 8.31023 108.404 7.58948 108.706 6.92378C109.007 6.25807 109.443 5.66168 109.986 5.17179C110.528 4.68189 111.165 4.309 111.858 4.07636C112.551 3.84371 113.285 3.75632 114.013 3.8196C115.283 3.93678 116.458 4.54251 117.29 5.5091C118.123 6.47569 118.547 7.72762 118.474 9.00105C118.474 14.6226 112.053 16.4031 112.053 20.5243C112.068 20.8354 112.145 21.1403 112.279 21.4212C112.414 21.7021 112.603 21.9533 112.836 22.1601C113.069 22.3669 113.341 22.5252 113.636 22.6256C113.931 22.726 114.243 22.7666 114.553 22.7449C118.554 22.7449 117.054 10.4615 126.057 10.4615C126.832 10.4887 127.594 10.6729 128.297 11.0029C128.999 11.3329 129.627 11.8019 130.143 12.3816C130.66 12.9613 131.053 13.6395 131.299 14.3755C131.546 15.1114 131.641 15.8896 131.578 16.6632C131.641 17.874 131.274 19.068 130.542 20.0344C129.81 21.0008 128.759 21.6774 127.577 21.9447C125.316 22.7449 123.576 21.9447 121.375 21.9447C120.745 21.9268 120.131 22.1379 119.645 22.539C119.159 22.94 118.836 23.5037 118.734 24.1253C118.734 25.4256 120.735 26.1258 121.415 26.1258C125.896 26.1258 126.657 22.7249 130.958 22.7449C131.593 22.7043 132.229 22.7924 132.829 23.0039C133.429 23.2154 133.98 23.5459 134.449 23.9757C134.918 24.4054 135.295 24.9255 135.558 25.5047C135.821 26.0839 135.965 26.7103 135.979 27.3462C135.979 30.9072 133.059 32.0675 129.818 32.0675C124.096 32.0675 122.795 27.9064 119.374 27.8863C119.058 27.8609 118.739 27.9025 118.44 28.0085C118.14 28.1145 117.866 28.2825 117.636 28.5014C117.405 28.7204 117.224 28.9855 117.103 29.2794C116.982 29.5733 116.924 29.8894 116.934 30.207C117.007 30.7809 117.249 31.3199 117.631 31.7548C118.012 32.1897 118.515 32.5007 119.074 32.6477C122.135 33.608 129.717 32.6477 132.878 35.8486C133.349 36.3183 133.722 36.8766 133.976 37.4912C134.23 38.1058 134.36 38.7646 134.359 39.4296C134.291 40.4815 133.921 41.4913 133.292 42.3373C132.663 43.1832 131.803 43.8292 130.816 44.1972C129.828 44.5652 128.755 44.6395 127.726 44.4112C126.697 44.1829 125.756 43.6618 125.016 42.9106C119.995 37.9092 103.07 20.7043 97.9684 15.6029V15.6029Z" fill="#6763FF"/>
<path d="M120.816 19.2457C121.194 16.9944 122.331 14.9402 124.037 13.424C124.341 13.2002 124.686 13.039 125.052 12.9499C125.419 12.8609 125.8 12.8457 126.172 12.9053C126.544 12.9649 126.901 13.0981 127.222 13.297C127.542 13.496 127.82 13.7568 128.038 14.0642C128.269 14.3645 128.436 14.7083 128.529 15.0749C128.623 15.4415 128.641 15.8233 128.583 16.1973C128.525 16.5712 128.392 16.9295 128.192 17.2506C127.992 17.5716 127.729 17.8488 127.418 18.0653C125.413 19.1914 123.087 19.6074 120.816 19.2457V19.2457Z" fill="#6763FF"/>
<path d="M101.948 15.3445C100.035 14.0645 98.6215 12.1638 97.9467 9.96303C97.877 9.60178 97.8792 9.23033 97.9531 8.86992C98.0269 8.50951 98.171 8.16717 98.3773 7.86249C98.5835 7.55781 98.8477 7.29675 99.1548 7.09421C99.462 6.89167 99.8061 6.75165 100.167 6.68211C100.529 6.60925 100.901 6.6084 101.262 6.67964C101.624 6.75087 101.968 6.89277 102.275 7.0972C102.581 7.30164 102.845 7.56462 103.05 7.87101C103.254 8.1774 103.397 8.52119 103.468 8.88271C103.712 11.1469 103.175 13.4264 101.948 15.3445V15.3445Z" fill="#6763FF"/>
<path d="M123.556 36.0699C125.795 35.6529 128.11 36.0128 130.117 37.0902C130.436 37.2976 130.71 37.5674 130.922 37.8833C131.134 38.1993 131.28 38.5548 131.351 38.9286C131.422 39.3024 131.417 39.6867 131.336 40.0584C131.254 40.43 131.098 40.7814 130.878 41.0914C130.459 41.7072 129.814 42.1328 129.084 42.2752C128.353 42.4176 127.596 42.2653 126.977 41.8516C125.204 40.3764 123.995 38.3339 123.556 36.0699Z" fill="#6763FF"/>
<path d="M76.4554 67.226C77.2276 65.7971 76.7033 64.0169 75.2842 63.2499C73.865 62.4829 72.0885 63.0196 71.3162 64.4484C70.544 65.8773 71.0684 67.6573 72.4875 68.4243C73.9067 69.1913 75.6831 68.6548 76.4554 67.226Z" fill="#6763FF"/>
<path d="M15.8217 86.3847C15.8076 85.8889 15.8996 85.3959 16.0916 84.9386C16.2835 84.4813 16.5711 84.0703 16.9348 83.7331C17.2985 83.3959 17.7301 83.1404 18.2006 82.9835C18.6711 82.8267 19.1696 82.7722 19.6629 82.8237C23.8041 82.8237 27.4052 87.9851 29.2258 91.3661C31.5064 94.627 33.8469 97.8879 37.8281 97.8679C43.0096 97.8679 48.4714 88.9054 50.2519 86.4247C52.5525 82.5836 55.1933 78.5625 58.9944 78.5625C60.1747 78.5637 61.3114 79.0087 62.1787 79.8093C63.046 80.6098 63.5803 81.7073 63.6757 82.8837C63.6757 86.4647 60.7748 87.8851 56.1535 89.8257C50.0317 92.8065 39.7688 96.2475 43.75 107.091C47.9712 117.093 56.8937 116.153 57.1738 121.455C57.1738 124.675 53.4728 126.416 50.2719 123.195C45.5105 118.034 42.2696 106.39 37.7482 101.809C31.5064 95.6073 15.8017 92.0263 15.8217 86.3847Z" fill="#6763FF"/>
<path d="M37.5314 92.2857C37.5314 92.2857 33.5303 88.1245 33.5303 83.4632C33.5303 82.3702 33.9643 81.322 34.7372 80.5491C35.51 79.7762 36.5583 79.342 37.6513 79.342C38.7234 79.3733 39.741 79.8212 40.4881 80.5907C41.2352 81.3602 41.653 82.3907 41.6525 83.4632C41.6525 88.1645 37.5314 92.2857 37.5314 92.2857Z" fill="#6763FF"/>
<path d="M47.9731 103.49C47.9731 103.49 52.8345 100.209 57.4158 101.069C58.4864 101.273 59.4328 101.892 60.0477 102.792C60.6626 103.692 60.8959 104.799 60.6968 105.87C60.6112 106.408 60.4169 106.922 60.1256 107.382C59.8343 107.842 59.4522 108.238 59.0027 108.545C58.5533 108.852 58.0459 109.064 57.5116 109.168C56.9773 109.273 56.4273 109.267 55.8954 109.151C51.314 108.291 47.9731 103.49 47.9731 103.49Z" fill="#6763FF"/>
<path d="M52.4951 130.618L9.38249 87.4454C6.53654 90.2718 4.27784 93.6333 2.73652 97.3363C1.1952 101.039 0.401855 105.011 0.401855 109.021C0.401855 113.032 1.1952 117.004 2.73652 120.707C4.27784 124.41 6.53654 127.771 9.38249 130.598C12.2055 133.441 15.563 135.698 19.2618 137.239C22.9606 138.78 26.9277 139.575 30.9346 139.576C34.9416 139.578 38.9094 138.788 42.6097 137.25C46.3099 135.713 49.6695 133.459 52.4951 130.618V130.618ZM42.0121 124.396C46.4934 128.857 44.5727 135.099 40.1314 135.919C39.3917 136.059 38.6299 136.027 37.9044 135.825C37.179 135.624 36.5094 135.26 35.9471 134.759C35.3848 134.259 34.9447 133.636 34.6608 132.939C34.377 132.241 34.2568 131.488 34.3096 130.738C34.3096 127.597 36.4904 119.354 32.1491 119.334C30.3286 119.334 29.8286 121.815 30.2887 123.896C30.7488 125.976 32.0692 127.897 31.7491 130.938C31.7406 131.668 31.5815 132.389 31.2822 133.056C30.9828 133.723 30.5494 134.32 30.0088 134.812C29.4683 135.304 28.8323 135.679 28.1404 135.914C27.4485 136.149 26.7157 136.24 25.9874 136.179C24.7136 136.062 23.5355 135.453 22.7028 134.482C21.87 133.511 21.448 132.254 21.5262 130.978C21.5262 125.376 27.9279 123.596 27.9279 119.474C27.9126 119.162 27.8356 118.857 27.7013 118.575C27.567 118.293 27.3781 118.04 27.1455 117.832C26.9129 117.624 26.6411 117.463 26.3462 117.361C26.0512 117.258 25.7389 117.215 25.4272 117.234C21.426 117.234 22.9465 129.537 13.9238 129.537C13.1481 129.508 12.3865 129.321 11.6849 128.988C10.9834 128.656 10.3564 128.185 9.8421 127.603C9.32784 127.022 8.93689 126.342 8.69284 125.605C8.44878 124.868 8.35676 124.089 8.42225 123.315C8.36022 122.107 8.72801 120.916 9.46039 119.953C10.1928 118.99 11.2424 118.317 12.4234 118.054C14.6841 117.254 16.4245 118.054 18.6051 118.054C19.2347 118.072 19.8495 117.861 20.3351 117.46C20.8208 117.059 21.1446 116.495 21.246 115.873C21.246 114.553 19.2453 113.873 18.5651 113.873C14.0838 113.873 13.3436 117.274 9.0423 117.274C8.40486 117.314 7.76593 117.226 7.16358 117.013C6.56124 116.801 6.00798 116.469 5.53714 116.037C5.06629 115.606 4.68752 115.083 4.42353 114.502C4.15954 113.92 4.01592 113.291 4.00104 112.652C4.00104 109.112 6.94183 107.951 10.1828 107.951C15.9044 107.951 17.1847 112.112 20.6057 112.112C20.9217 112.137 21.2394 112.096 21.5386 111.992C21.8378 111.887 22.112 111.721 22.3435 111.505C22.5751 111.288 22.759 111.026 22.8835 110.734C23.008 110.443 23.0702 110.129 23.0664 109.812C22.9833 109.236 22.7349 108.698 22.3513 108.261C21.9678 107.824 21.4656 107.508 20.9059 107.351C17.865 106.391 10.2827 107.351 7.12182 104.15C6.64986 103.685 6.27567 103.131 6.02141 102.519C5.76715 101.908 5.63799 101.251 5.64141 100.589C5.70546 99.5356 6.07344 98.5231 6.7008 97.6743C7.32817 96.8255 8.18799 96.1767 9.17638 95.8063C10.1648 95.4359 11.2393 95.3599 12.27 95.5874C13.3007 95.8149 14.2436 96.3361 14.9842 97.0881C19.9857 102.09 36.9306 119.294 42.0121 124.396Z" fill="#6763FF"/>
<path d="M19.1649 120.753C18.787 123.005 17.6505 125.059 15.944 126.575C15.6414 126.801 15.2963 126.965 14.9293 127.055C14.5624 127.146 14.1811 127.162 13.8079 127.102C13.4347 127.042 13.0772 126.908 12.7568 126.708C12.4364 126.507 12.1596 126.244 11.9428 125.935C11.7126 125.634 11.5457 125.291 11.452 124.924C11.3583 124.557 11.3398 124.176 11.3978 123.802C11.4557 123.428 11.589 123.069 11.7892 122.748C11.9895 122.427 12.2526 122.15 12.5629 121.934C14.5621 120.792 16.894 120.375 19.1649 120.753V120.753Z" fill="#6763FF"/>
<path d="M38.0506 124.655C39.9545 125.936 41.3656 127.827 42.0518 130.017C42.1214 130.381 42.1189 130.755 42.0439 131.117C41.969 131.48 41.8234 131.825 41.6154 132.131C41.4073 132.438 41.1407 132.7 40.8312 132.904C40.5217 133.107 40.175 133.248 39.8111 133.318C39.4498 133.39 39.0779 133.391 38.7163 133.32C38.3547 133.249 38.0107 133.107 37.7041 132.902C37.3974 132.698 37.134 132.435 36.9292 132.129C36.7243 131.822 36.5821 131.478 36.5104 131.117C36.2824 128.851 36.8249 126.574 38.0506 124.655V124.655Z" fill="#6763FF"/>
<path d="M16.4452 103.908C14.1991 104.33 11.8762 103.97 9.86319 102.888C9.5442 102.681 9.27053 102.411 9.05851 102.095C8.8465 101.779 8.7007 101.424 8.62968 101.05C8.55866 100.676 8.56394 100.292 8.64531 99.92C8.72667 99.5484 8.88226 99.197 9.10296 98.8871C9.30875 98.5665 9.57731 98.2909 9.8925 98.077C10.2077 97.863 10.5631 97.7151 10.937 97.6422C11.3109 97.5693 11.6957 97.5729 12.0682 97.6528C12.4407 97.7326 12.793 97.8871 13.1041 98.1068C14.8411 99.6079 16.0187 101.653 16.4452 103.908Z" fill="#6763FF"/>
<path d="M68.6286 75.538C69.4016 74.1095 68.8781 72.3293 67.4594 71.5615C66.0406 70.7938 64.2639 71.3293 63.4909 72.7578C62.7179 74.1862 63.2414 75.9665 64.6601 76.7342C66.0789 77.502 67.8556 76.9664 68.6286 75.538Z" fill="#6763FF"/>
<path d="M124.176 86.3847C124.187 85.8899 124.093 85.3984 123.9 84.9426C123.707 84.4868 123.419 84.0772 123.056 83.7407C122.693 83.4041 122.263 83.1484 121.794 82.9904C121.325 82.8323 120.827 82.7755 120.335 82.8237C116.194 82.8237 112.573 87.9852 110.772 91.3661C108.472 94.627 106.151 97.8879 102.17 97.8679C96.9881 97.8679 91.5266 88.9054 89.7261 86.4247C87.4254 82.5837 84.8047 78.5625 81.0036 78.5625C79.8198 78.5587 78.6781 79.0015 77.8066 79.8025C76.9351 80.6036 76.3979 81.7039 76.3022 82.8837C76.3022 86.4647 79.2229 87.8851 83.8242 89.8257C89.946 92.8065 100.229 96.2475 96.228 107.091C92.0267 117.093 83.1042 116.153 82.8041 121.455C82.8041 124.675 86.5051 126.416 89.7261 123.195C94.4674 118.034 97.7284 106.39 102.23 101.809C108.492 95.6073 124.176 92.0263 124.176 86.3847Z" fill="#6763FF"/>
<path d="M102.449 92.2857C102.449 92.2857 106.57 88.1245 106.57 83.4632C106.564 82.3718 106.129 81.3266 105.357 80.5549C104.585 79.7832 103.54 79.3473 102.449 79.342C101.908 79.342 101.373 79.4488 100.874 79.6561C100.375 79.8635 99.9225 80.1674 99.5414 80.5503C99.1603 80.9333 98.8586 81.3877 98.6537 81.8876C98.4488 82.3875 98.3446 82.9229 98.3472 83.4632C98.3472 88.1645 102.449 92.2857 102.449 92.2857Z" fill="#6763FF"/>
<path d="M92.0074 103.491C92.0074 103.491 87.1858 100.29 82.5845 101.07C82.0531 101.169 81.5466 101.371 81.0938 101.666C80.641 101.961 80.2509 102.343 79.946 102.789C79.6411 103.235 79.4274 103.737 79.3171 104.266C79.2069 104.795 79.2024 105.341 79.3037 105.872C79.3895 106.407 79.5832 106.92 79.8732 107.378C80.1632 107.836 80.5433 108.231 80.9905 108.538C81.4377 108.845 81.9426 109.057 82.4746 109.163C83.0065 109.269 83.5543 109.265 84.0849 109.153C87.2906 108.217 90.084 106.221 92.0074 103.491V103.491Z" fill="#6763FF"/>
<path d="M130.638 130.598C133.481 127.77 135.738 124.408 137.278 120.705C138.817 117.002 139.61 113.032 139.61 109.021C139.61 105.011 138.817 101.041 137.278 97.3379C135.738 93.6351 133.481 90.2732 130.638 87.4454L87.5054 130.618C90.3327 133.459 93.6941 135.714 97.3959 137.251C101.098 138.789 105.067 139.58 109.076 139.578C113.084 139.576 117.053 138.782 120.754 137.241C124.454 135.699 127.813 133.442 130.638 130.598V130.598ZM125.056 97.0081C125.797 96.2561 126.74 95.7348 127.77 95.5073C128.801 95.2798 129.876 95.3559 130.864 95.7263C131.852 96.0966 132.712 96.7455 133.339 97.5943C133.967 98.4431 134.335 99.4555 134.399 100.509C134.402 101.171 134.273 101.828 134.019 102.439C133.765 103.051 133.39 103.605 132.918 104.07C129.758 107.251 122.175 106.311 119.114 107.271C118.555 107.424 118.053 107.74 117.672 108.177C117.291 108.615 117.048 109.156 116.974 109.732C116.967 110.048 117.027 110.362 117.149 110.653C117.271 110.945 117.453 111.207 117.683 111.424C117.913 111.641 118.186 111.807 118.485 111.912C118.783 112.016 119.099 112.058 119.415 112.032C122.836 112.032 124.136 107.871 129.858 107.871C133.098 107.871 136.019 109.031 136.019 112.572C136.007 113.21 135.866 113.839 135.604 114.42C135.342 115.002 134.965 115.524 134.496 115.956C134.027 116.388 133.475 116.72 132.874 116.933C132.273 117.146 131.634 117.234 130.998 117.194C126.697 117.194 125.936 113.793 121.455 113.793C120.815 113.793 118.774 114.473 118.774 115.793C118.876 116.415 119.199 116.979 119.685 117.38C120.171 117.781 120.786 117.992 121.415 117.974C123.636 117.974 125.416 117.254 127.617 117.974C128.798 118.237 129.848 118.91 130.58 119.873C131.312 120.836 131.68 122.027 131.618 123.235C131.681 124.01 131.586 124.789 131.34 125.526C131.093 126.263 130.7 126.943 130.185 127.524C129.669 128.105 129.041 128.576 128.338 128.909C127.635 129.241 126.873 129.427 126.096 129.457C117.094 129.457 118.574 117.154 114.593 117.154C114.281 117.135 113.969 117.178 113.674 117.281C113.379 117.383 113.108 117.544 112.875 117.752C112.642 117.96 112.454 118.213 112.319 118.495C112.185 118.777 112.108 119.082 112.092 119.394C112.092 123.516 118.514 125.396 118.514 130.898C118.587 132.173 118.163 133.427 117.332 134.397C116.5 135.367 115.325 135.977 114.053 136.099C113.323 136.162 112.588 136.074 111.894 135.841C111.2 135.607 110.561 135.232 110.018 134.74C109.476 134.248 109.04 133.649 108.74 132.981C108.439 132.313 108.28 131.59 108.271 130.858C107.971 127.757 109.412 125.656 109.752 123.816C110.092 121.975 109.752 119.254 107.891 119.254C103.53 119.254 105.731 127.517 105.731 130.658C105.783 131.408 105.663 132.161 105.379 132.859C105.096 133.556 104.656 134.179 104.093 134.679C103.531 135.18 102.861 135.544 102.136 135.745C101.41 135.947 100.649 135.979 99.9089 135.839C95.4476 135.019 93.5471 128.777 98.0084 124.316C103.07 119.294 119.995 102.09 125.056 97.0081V97.0081Z" fill="#6763FF"/>
<path d="M120.816 120.753C121.194 123.005 122.331 125.059 124.037 126.575C124.341 126.799 124.686 126.96 125.052 127.049C125.419 127.138 125.8 127.153 126.172 127.094C126.544 127.034 126.901 126.901 127.222 126.702C127.542 126.503 127.82 126.242 128.038 125.935C128.269 125.634 128.436 125.291 128.529 124.924C128.623 124.557 128.641 124.176 128.583 123.802C128.525 123.428 128.392 123.069 128.192 122.748C127.992 122.427 127.729 122.15 127.418 121.934C125.419 120.792 123.087 120.375 120.816 120.753V120.753Z" fill="#6763FF"/>
<path d="M101.948 124.655C100.039 125.93 98.6259 127.823 97.947 130.017C97.8059 130.749 97.9602 131.507 98.3764 132.125C98.7925 132.744 99.4364 133.172 100.168 133.318C100.529 133.39 100.901 133.391 101.263 133.32C101.624 133.249 101.968 133.107 102.275 132.902C102.582 132.698 102.845 132.435 103.05 132.129C103.255 131.822 103.397 131.478 103.469 131.117C103.712 128.853 103.176 126.573 101.948 124.655V124.655Z" fill="#6763FF"/>
<path d="M123.556 103.91C125.795 104.327 128.11 103.967 130.117 102.89C130.441 102.687 130.719 102.419 130.935 102.103C131.15 101.787 131.298 101.431 131.369 101.055C131.441 100.68 131.434 100.294 131.349 99.9208C131.264 99.5481 131.104 99.1969 130.878 98.889C130.674 98.5803 130.411 98.3151 130.104 98.1086C129.797 97.9021 129.452 97.7584 129.09 97.6859C128.727 97.6133 128.353 97.6133 127.991 97.6859C127.628 97.7585 127.283 97.9022 126.977 98.1088C125.2 99.589 123.991 101.639 123.556 103.91Z" fill="#6763FF"/>
<path d="M75.3729 76.5581C76.7917 75.7904 77.3153 74.01 76.5423 72.5815C75.7693 71.1531 73.9924 70.6176 72.5737 71.3853C71.1549 72.1531 70.6315 73.9334 71.4045 75.3618C72.1775 76.7902 73.9542 77.3259 75.3729 76.5581Z" fill="#6763FF"/>
<path d="M68.8396 136.599V140H51.0346C49.5742 140 48.6338 139.34 48.6338 138.219C48.6338 137.099 49.4541 136.339 50.9946 136.339C54.8957 136.339 57.4965 138.82 66.9992 138.82C62.2779 137.659 56.6762 131.718 56.6762 128.377C56.6762 127.846 56.8868 127.337 57.262 126.962C57.6372 126.587 58.1462 126.376 58.6767 126.376C60.1372 126.376 60.8173 127.977 61.1174 128.897C63.8182 136.899 65.9389 137.559 67.4593 137.859C67.4593 126.476 63.4582 123.695 63.4582 119.474C63.4582 116.313 68.8596 115.253 68.8596 121.235L68.8396 136.599Z" fill="#6763FF"/>
<path d="M71.1807 136.599V140H88.9859C90.4663 140 91.4065 139.34 91.4065 138.219C91.4065 137.099 90.5864 136.339 89.0259 136.339C85.0248 136.339 82.524 138.82 73.0213 138.82C77.7227 137.659 83.3441 131.718 83.3441 128.377C83.3441 127.846 83.1334 127.337 82.7582 126.962C82.3831 126.587 81.8741 126.376 81.3435 126.376C79.8831 126.376 79.2029 127.977 78.8829 128.897C76.1821 136.899 74.0814 137.559 72.561 137.859C72.561 126.476 76.5621 123.695 76.5621 119.474C76.5621 116.313 71.1606 115.253 71.1606 121.235L71.1807 136.599Z" fill="#6763FF"/>
<path d="M68.8396 3.38095V0H51.0346C49.5742 0 48.6338 0.660184 48.6338 1.7805C48.6338 2.90081 49.4541 3.66103 50.9946 3.66103C54.8957 3.66103 57.4965 1.18035 66.9992 1.18035C62.2779 2.32067 56.6762 8.26231 56.6762 11.6233C56.6762 12.1538 56.8868 12.6627 57.262 13.0379C57.6372 13.413 58.1462 13.6238 58.6767 13.6238C60.1372 13.6238 60.8173 12.0234 61.1174 11.1031C63.8182 3.10088 65.9389 2.4407 67.4593 2.14061C67.4593 13.5038 63.4582 16.3046 63.4582 20.5058C63.4582 23.6666 68.8596 24.7469 68.8596 18.7653L68.8396 3.38095Z" fill="#6763FF"/>
<path d="M71.1807 3.38095V0H88.9859C90.4663 0 91.4065 0.660184 91.4065 1.7805C91.4065 2.90081 90.5864 3.66103 89.0259 3.66103C85.0248 3.66103 82.524 1.18035 73.0213 1.18035C77.7227 2.32067 83.3441 8.26231 83.3441 11.6233C83.3441 12.1538 83.1334 12.6627 82.7582 13.0379C82.3831 13.413 81.8741 13.6238 81.3435 13.6238C79.8831 13.6238 79.2029 12.0234 78.8829 11.1031C76.1821 3.10088 74.0814 2.4407 72.561 2.14061C72.561 13.5038 76.5621 16.3046 76.5621 20.5058C76.5621 23.6666 71.1606 24.7469 71.1606 18.7653L71.1807 3.38095Z" fill="#6763FF"/>
<path d="M3.38087 68.8387H0V51.0337C0 49.5733 0.660221 48.6331 1.78055 48.6331C2.90087 48.6331 3.66098 49.4533 3.66098 50.9937C3.66098 54.9948 1.18027 57.4955 1.18027 66.9982C2.32061 62.2769 8.26227 56.6753 11.6233 56.6753C12.1538 56.6753 12.6628 56.8861 13.038 57.2613C13.4131 57.6364 13.6238 58.1453 13.6238 58.6759C13.6238 60.1363 12.0233 60.8165 11.1031 61.1166C3.10075 63.8173 2.4406 65.9379 2.14051 67.4583C13.5038 67.4583 16.2847 63.4572 20.506 63.4572C23.6669 63.4572 24.7472 68.8587 18.7655 68.8587L3.38087 68.8387Z" fill="#6763FF"/>
<path d="M3.38087 71.1409H0V88.9659C0 90.4263 0.660221 91.3665 1.78055 91.3665C2.90087 91.3665 3.66098 90.5463 3.66098 89.0059C3.66098 85.0048 1.18027 82.4841 1.18027 73.0014C2.32061 77.7027 8.26227 83.3243 11.6233 83.3243C12.1538 83.3243 12.6628 83.1135 13.038 82.7383C13.4131 82.3632 13.6238 81.8543 13.6238 81.3237C13.6238 79.8633 12.0233 79.1831 11.1031 78.863C3.10075 76.1623 2.4406 74.0617 2.14051 72.5413C13.5038 72.5413 16.2847 76.5424 20.506 76.5424C23.6669 76.5424 24.7472 71.1409 18.7655 71.1409H3.38087Z" fill="#6763FF"/>
<path d="M136.599 68.8387H140V51.0337C140 49.5733 139.34 48.6331 138.2 48.6331C137.059 48.6331 136.339 49.4533 136.339 50.9937C136.339 54.9948 138.82 57.4955 138.82 66.9982C137.66 62.2769 131.718 56.6753 128.377 56.6753C127.846 56.6753 127.337 56.8861 126.962 57.2613C126.587 57.6364 126.376 58.1453 126.376 58.6759C126.376 60.1363 127.977 60.8165 128.897 61.1166C136.899 63.8173 137.559 65.9379 137.859 67.4583C126.476 67.4583 123.695 63.4572 119.474 63.4572C116.313 63.4572 115.253 68.8587 121.235 68.8587L136.599 68.8387Z" fill="#6763FF"/>
<path d="M136.599 71.1409H140V88.9659C140 90.4263 139.34 91.3665 138.2 91.3665C137.059 91.3665 136.339 90.5463 136.339 89.0059C136.339 85.0048 138.82 82.4841 138.82 73.0014C137.66 77.7027 131.718 83.3243 128.377 83.3243C127.846 83.3243 127.337 83.1135 126.962 82.7383C126.587 82.3632 126.376 81.8543 126.376 81.3237C126.376 79.8633 127.977 79.1831 128.897 78.863C136.899 76.1623 137.559 74.0617 137.859 72.5413C126.476 72.5413 123.695 76.5424 119.474 76.5424C116.313 76.5424 115.253 71.1409 121.235 71.1409H136.599Z" fill="#6763FF"/>
</svg>
