<svg width="140" height="140" viewBox="0 0 140 140" fill="none" xmlns="http://www.w3.org/2000/svg">
<path d="M67.3362 68.5379C68.7549 67.7703 69.2784 65.9905 68.5054 64.5624C67.7324 63.1344 65.9557 62.599 64.537 63.3665C63.1183 64.134 62.5949 65.9138 63.3679 67.3419C64.1409 68.7699 65.9175 69.3054 67.3362 68.5379Z" fill="#6763FF"/>
<path d="M76.59 67.2986C77.3622 65.8702 76.8379 64.0905 75.4188 63.3237C73.9997 62.557 72.2232 63.0934 71.451 64.5218C70.6787 65.9503 71.2031 67.7298 72.6223 68.4966C74.0414 69.2634 75.8178 68.727 76.59 67.2986Z" fill="#6763FF"/>
<path d="M75.4628 76.6807C76.8815 75.9132 77.405 74.1333 76.632 72.7052C75.859 71.2772 74.0823 70.7418 72.6636 71.5093C71.2449 72.2768 70.7214 74.0567 71.4943 75.4847C72.2673 76.9128 74.0441 77.4482 75.4628 76.6807Z" fill="#6763FF"/>
<path d="M68.4557 75.4774C69.228 74.0489 68.7036 72.2693 67.2845 71.5025C65.8654 70.7357 64.0889 71.2722 63.3167 72.7006C62.5445 74.1291 63.0689 75.9086 64.488 76.6754C65.9071 77.4421 67.6835 76.9058 68.4557 75.4774Z" fill="#6763FF"/>
<path d="M43.9728 77.04C34.5102 80.26 21.9668 83.04 12.9843 87.4801C10.9638 88.1669 9.22964 89.5071 8.05587 91.2891C6.88209 93.071 6.33555 95.193 6.50252 97.3201C7.26273 101.2 10.1635 107.78 17.9256 116.5C13.7845 116.5 8.58309 106.38 4.622 109.14C3.55035 109.83 2.6889 110.802 2.13152 111.948C1.57413 113.094 1.34225 114.371 1.46117 115.64C1.46117 117.52 1.86126 119.32 3.8218 119.8C6.12243 120.36 8.28302 115.18 8.70314 113.6C11.1606 116.224 14.4444 117.926 18.0057 118.42C13.0644 121.18 0.820994 120.88 0.400879 127.34C0.400879 134.3 6.40252 139.76 10.4036 139.76C12.4042 139.76 15.7051 138.36 16.0852 132.52C13.5845 131.82 9.74343 129.58 9.90348 127.34C9.90348 123.34 20.5263 119.34 19.9062 119.52C19.5211 121.375 19.3401 123.266 19.3661 125.16C19.3661 129.16 19.106 137.54 22.967 138.28C24.829 138.651 26.7507 138.596 28.5886 138.12C29.3942 138.033 30.1613 137.73 30.8089 137.243C31.4565 136.755 31.9606 136.103 32.2679 135.353C32.5753 134.603 32.6744 133.785 32.555 132.983C32.4356 132.182 32.102 131.428 31.5894 130.8C29.7089 128.92 18.6058 132.64 22.0468 120.66C29.3488 127.3 38.2112 132.48 42.7525 133.22C50.7547 134.5 51.6348 125.52 52.9152 120.72C56.2361 107.58 59.577 94.0001 60.3373 90.24C60.8572 88.1919 60.8316 86.0434 60.263 84.0083C59.6944 81.9731 58.6027 80.1223 57.0964 78.64C53.4954 75.54 50.1145 75.04 43.9728 77.04ZM42.8525 93.2201C42.0603 98.6498 39.3493 103.616 35.2104 107.22C34.8076 104.479 35.2764 101.68 36.5507 99.2201C38.0987 96.7104 40.2696 94.6435 42.8525 93.2201ZM20.0063 104C22.2809 102.148 25.08 101.056 28.0085 100.88C25.231 105.673 20.8102 109.296 15.565 111.08C16.2056 108.287 17.7705 105.793 20.0063 104ZM45.7932 117.28C45.2856 120.156 44.0143 122.843 42.1123 125.06C40.869 119.717 41.5786 114.106 44.1128 109.24C45.6192 111.602 46.2163 114.431 45.7932 117.2V117.28ZM33.4299 116.3C33.5253 119.241 32.7455 122.143 31.1893 124.64C28.9534 119.584 28.7035 113.872 30.4891 108.64C32.2162 110.81 33.2419 113.454 33.4299 116.22V116.3ZM49.1142 108.06C47.6658 105.708 47.0134 102.952 47.2537 100.2C47.5535 97.2364 48.7703 94.4399 50.7347 92.2001C52.0954 97.4915 51.5208 103.095 49.1142 108V108.06ZM30.6891 92.8801C25.7226 95.3123 20.0645 95.9416 14.6848 94.6601C16.7359 92.8048 19.3041 91.6188 22.0468 91.2601C25.0157 90.9326 28.0162 91.4672 30.6891 92.8V92.8801ZM49.6743 82.88C45.312 86.2891 39.8581 87.9952 34.3301 87.68C35.9873 85.4202 38.3424 83.7686 41.0319 82.98C43.8322 82.0431 46.8571 82.0151 49.6743 82.9V82.88Z" fill="#6763FF"/>
<path d="M57.0568 61.4601C58.5683 59.9855 59.6638 58.1384 60.2329 56.1052C60.8019 54.072 60.8242 51.9247 60.2977 49.8801C59.5375 46.1 56.2967 32.52 52.8758 19.3799C51.5954 14.5799 50.6351 5.59989 42.7129 6.87989C38.1717 7.6199 29.3093 12.8799 22.0073 19.4599C18.5664 7.4599 29.6693 11.1999 31.5499 9.2999C32.0639 8.67437 32.3987 7.92129 32.5189 7.12069C32.639 6.3201 32.54 5.50192 32.2322 4.75313C31.9244 4.00434 31.4194 3.35292 30.7708 2.86813C30.1223 2.38334 29.3545 2.08329 28.549 1.99987C26.714 1.50818 24.7902 1.44658 22.9275 1.81988C19.0664 2.55988 19.3265 10.9199 19.3265 14.9399C19.3005 16.834 19.4817 18.7252 19.8667 20.5799C20.5069 20.8399 9.86393 16.7199 9.86393 12.7599C9.70388 10.5199 13.5449 8.27989 16.0456 7.57989C15.6655 1.73987 12.3846 0.359863 10.3641 0.359863C6.36297 0.359863 0.361328 5.79988 0.361328 12.7599C0.781443 19.2399 13.0248 18.9199 17.9662 21.6799C14.4048 22.1746 11.1211 23.876 8.66359 26.5C8.24347 24.92 6.08294 19.7599 3.78231 20.3199C1.78176 20.7799 1.42162 22.58 1.42162 24.46C1.3027 25.7289 1.53458 27.0061 2.09197 28.1523C2.64935 29.2985 3.51086 30.2697 4.58251 30.96C8.58361 33.72 13.7449 23.7 17.8861 23.6C10.124 32.34 7.22324 38.92 6.46303 42.8C6.29716 44.9244 6.84446 47.0434 8.01839 48.822C9.19232 50.6005 10.9258 51.937 12.9448 52.6201C21.8872 57.0801 34.4707 59.8601 43.9332 63.0601C50.1149 65.0801 53.4959 64.5601 57.0568 61.4601ZM36.5512 40.84C35.273 38.3809 34.804 35.5812 35.2109 32.84C39.354 36.4404 42.066 41.4086 42.853 46.84C40.2755 45.4093 38.1063 43.344 36.5512 40.84ZM15.5455 29.1C20.7907 30.8837 25.2115 34.5075 27.9889 39.3C25.0578 39.1359 22.2551 38.0431 19.9868 36.18C17.751 34.3874 16.186 31.8927 15.5455 29.1ZM44.1533 30.94C41.6173 26.0749 40.9077 20.4629 42.1527 15.1199C44.0548 17.3367 45.3261 20.0237 45.8338 22.8999C46.2827 25.6954 45.6843 28.5581 44.1533 30.94ZM30.4896 31.62C28.704 26.3881 28.9539 20.6759 31.1898 15.6199C32.7489 18.1083 33.5291 21.0054 33.4304 23.94C33.251 26.7456 32.21 29.4276 30.4496 31.62H30.4896ZM50.7352 48C48.7708 45.7602 47.554 42.9637 47.2542 40C47.0139 37.2482 47.6663 34.4922 49.1147 32.14C51.5341 37.063 52.109 42.6897 50.7352 48ZM22.0873 48.9401C19.3446 48.5813 16.7765 47.3953 14.7253 45.54C20.1051 44.2585 25.7632 44.8878 30.7297 47.32C28.0628 48.6735 25.0621 49.229 22.0873 48.92V48.9401ZM41.0324 57.1201C38.3429 56.3315 35.9878 54.6799 34.3306 52.4201C39.8623 52.1012 45.3197 53.8156 49.6748 57.2401C46.8502 58.0975 43.8278 58.0485 41.0324 57.1001V57.1201Z" fill="#6763FF"/>
<path d="M96.0467 63.0601C105.509 59.8601 118.053 57.0601 127.015 52.6201C129.036 51.94 130.772 50.6042 131.946 48.8249C133.121 47.0457 133.666 44.925 133.497 42.8C132.737 38.92 129.836 32.34 122.094 23.6C126.215 23.6 131.437 33.72 135.398 30.96C136.455 30.2597 137.3 29.2842 137.843 28.1387C138.386 26.9932 138.606 25.7212 138.478 24.46C138.478 22.58 138.078 20.7799 136.138 20.3199C133.817 19.7599 131.657 24.92 131.256 26.5C128.79 23.8772 125.5 22.1765 121.934 21.6799C126.875 18.9199 139.139 19.2399 139.559 12.7599C139.559 5.79988 133.557 0.359863 129.556 0.359863C127.555 0.359863 124.255 1.73987 123.874 7.57989C126.375 8.27989 130.236 10.5199 130.056 12.7599C130.056 16.7599 119.433 20.7599 120.053 20.5799C120.45 18.727 120.632 16.8345 120.593 14.9399C120.593 10.9399 120.854 2.55988 116.993 1.81988C115.13 1.44658 113.206 1.50818 111.371 1.99987C110.566 2.08329 109.798 2.38334 109.149 2.86813C108.501 3.35292 107.996 4.00434 107.688 4.75313C107.38 5.50192 107.281 6.3201 107.401 7.12069C107.521 7.92129 107.856 8.67437 108.37 9.2999C110.251 11.1999 121.354 7.4599 117.933 19.4599C110.611 12.7999 101.748 7.6199 97.2271 6.87989C89.2249 5.59989 88.3246 14.5799 87.0443 19.3799C83.7434 32.52 80.4026 46.1 79.6424 49.8801C79.1134 51.923 79.1325 54.0692 79.698 56.1023C80.2635 58.1354 81.3553 59.9835 82.8632 61.4601C86.4642 64.5601 89.8851 65.0801 96.0467 63.0601ZM97.1471 46.9C97.9497 41.4693 100.667 36.504 104.809 32.9C105.199 35.6432 104.724 38.4397 103.449 40.9C101.899 43.408 99.7284 45.4744 97.1471 46.9ZM119.993 36.18C117.725 38.0431 114.922 39.1359 111.991 39.3C114.755 34.504 119.171 30.8782 124.414 29.1C123.779 31.8899 122.222 34.3843 119.993 36.18ZM94.2263 22.8999C94.7339 20.0237 96.0052 17.3367 97.9072 15.1199C99.1613 20.4624 98.4513 26.0776 95.9067 30.94C94.3757 28.5581 93.7774 25.6954 94.2263 22.8999ZM106.57 23.88C106.471 20.9454 107.251 18.0483 108.81 15.5599C111.062 20.6122 111.312 26.3304 109.511 31.56C107.764 29.3627 106.738 26.6812 106.57 23.88ZM90.8854 32.12C92.3515 34.4649 93.0053 37.2269 92.7459 39.98C92.4461 42.9437 91.2294 45.7402 89.265 47.98C87.8911 42.6697 88.466 37.043 90.8854 32.12ZM109.33 47.3C114.295 44.8629 119.955 44.2334 125.335 45.52C123.291 47.3748 120.73 48.5611 117.993 48.92C115.009 49.2302 112 48.6674 109.33 47.3ZM90.3252 57.3001C94.6804 53.8756 100.138 52.1612 105.669 52.4801C104.016 54.7442 101.66 56.397 98.9676 57.1801C96.1617 58.0959 93.1394 58.1099 90.3252 57.2201V57.3001Z" fill="#6763FF"/>
<path d="M82.9421 78.64C81.4307 80.1186 80.3369 81.97 79.7713 84.007C79.2057 86.044 79.1885 88.1942 79.7212 90.24C80.4814 94.0001 83.7223 107.58 87.1233 120.72C88.4036 125.52 89.3638 134.5 97.306 133.22C101.827 132.48 110.69 127.22 118.012 120.66C121.433 132.66 110.33 128.92 108.449 130.8C107.936 131.428 107.603 132.182 107.483 132.983C107.364 133.785 107.463 134.603 107.771 135.353C108.078 136.103 108.582 136.755 109.23 137.243C109.877 137.73 110.644 138.033 111.45 138.12C113.288 138.596 115.209 138.651 117.071 138.28C120.932 137.54 120.672 129.2 120.672 125.16C120.71 123.266 120.529 121.373 120.132 119.52C119.492 119.26 130.135 123.38 130.135 127.34C130.315 129.58 126.454 131.82 123.953 132.52C124.333 138.36 127.634 139.76 129.635 139.76C133.636 139.76 139.638 134.3 139.638 127.34C139.218 120.88 126.954 121.18 122.013 118.42C125.579 117.924 128.869 116.223 131.335 113.6C131.735 115.18 133.896 120.36 136.217 119.8C138.217 119.32 138.577 117.52 138.557 115.64C138.678 114.373 138.449 113.097 137.896 111.951C137.342 110.805 136.484 109.833 135.416 109.14C131.415 106.38 126.234 116.42 122.113 116.5C129.855 107.78 132.756 101.2 133.516 97.3201C133.686 95.1924 133.141 93.0688 131.967 91.2861C130.793 89.5035 129.057 88.1639 127.034 87.4801C118.112 83.02 105.528 80.26 96.0657 77.04C89.884 75.04 86.463 75.54 82.9421 78.64ZM103.448 99.2601C104.719 101.722 105.194 104.517 104.808 107.26C100.67 103.653 97.9537 98.6891 97.146 93.2601C99.7333 94.6775 101.905 96.7457 103.448 99.2601ZM124.473 111C119.23 109.222 114.814 105.596 112.05 100.8C114.978 100.976 117.778 102.068 120.052 103.92C122.281 105.716 123.838 108.21 124.473 111ZM95.8657 109.16C98.4085 114.023 99.1185 119.638 97.8662 124.98C95.9642 122.763 94.6928 120.076 94.1851 117.2C93.7341 114.407 94.3251 111.546 95.8456 109.16H95.8657ZM109.529 108.48C111.327 113.71 111.077 119.427 108.829 124.48C107.273 121.983 106.493 119.081 106.589 116.14C106.755 113.348 107.774 110.674 109.509 108.48H109.529ZM89.2838 92.1201C91.2481 94.3599 92.4651 97.1564 92.7648 100.12C93.0242 102.873 92.3703 105.635 90.9042 107.98C88.4764 103.06 87.8944 97.4326 89.2639 92.1201H89.2838ZM117.952 91.18C120.688 91.539 123.25 92.7253 125.294 94.5801C119.914 95.8667 114.254 95.2372 109.289 92.8C111.953 91.4365 114.955 90.8738 117.932 91.18H117.952ZM98.9865 83C101.679 83.7831 104.035 85.4359 105.688 87.7001C100.16 88.0153 94.7064 86.3091 90.3441 82.9C93.1572 82.0259 96.1744 82.0609 98.9665 83H98.9865Z" fill="#6763FF"/>
<path d="M68.8588 136.64V140H51.0339C49.5735 140 48.6333 139.36 48.6333 138.22C48.6333 137.08 49.4535 136.36 50.9939 136.36C54.995 136.36 57.5157 138.84 66.9983 138.84C62.297 137.68 56.6754 131.74 56.6754 128.4C56.6754 127.869 56.8862 127.361 57.2614 126.986C57.6366 126.611 58.1454 126.4 58.676 126.4C60.1364 126.4 60.8166 128 61.1367 128.92C63.8375 136.92 65.938 137.58 67.4584 137.88C67.4584 126.5 63.4573 123.72 63.4573 119.5C63.4573 116.34 68.8588 115.28 68.8588 121.26V136.64Z" fill="#6763FF"/>
<path d="M71.1615 136.64V140H88.9664C90.4268 140 91.3671 139.36 91.3671 138.22C91.3671 137.08 90.5469 136.36 89.0065 136.36C85.1054 136.36 82.5047 138.84 73.0021 138.84C77.7234 137.68 83.3249 131.74 83.3249 128.4C83.3249 127.869 83.1141 127.361 82.7389 126.986C82.3637 126.611 81.8549 126.4 81.3243 126.4C79.8639 126.4 79.1838 128 78.8837 128.92C76.183 136.92 74.0623 137.58 72.5419 137.88C72.5419 126.5 76.543 123.72 76.543 119.5C76.543 116.34 71.1416 115.28 71.1416 121.26L71.1615 136.64Z" fill="#6763FF"/>
<path d="M68.8588 3.45996V-6.10352e-05H51.0339C49.5735 -6.10352e-05 48.6333 0.65994 48.6333 1.77994C48.6333 2.89995 49.4535 3.65996 50.9939 3.65996C54.995 3.65996 57.5157 1.17994 66.9983 1.17994C62.297 2.31994 56.6754 8.25997 56.6754 11.62C56.6754 12.1504 56.8862 12.6591 57.2614 13.0342C57.6366 13.4093 58.1454 13.62 58.676 13.62C60.1364 13.62 60.8166 12 61.1367 11.1C63.8375 3.09996 65.938 2.43994 67.4584 2.11994C67.4584 13.5 63.4573 16.28 63.4573 20.5C63.4573 23.66 68.8588 24.72 68.8588 18.76V3.45996Z" fill="#6763FF"/>
<path d="M71.1615 3.45996V-6.10352e-05H88.9664C90.4268 -6.10352e-05 91.3671 0.65994 91.3671 1.77994C91.3671 2.89995 90.5469 3.65996 89.0065 3.65996C85.1054 3.65996 82.5047 1.17994 73.0021 1.17994C77.7234 2.31994 83.3249 8.25997 83.3249 11.62C83.3249 12.1504 83.1141 12.6591 82.7389 13.0342C82.3637 13.4093 81.8549 13.62 81.3243 13.62C79.8639 13.62 79.1838 12 78.8837 11.1C76.183 3.09996 74.0623 2.43994 72.5419 2.11994C72.5419 13.5 76.543 16.28 76.543 20.5C76.543 23.66 71.1416 24.72 71.1416 18.76L71.1615 3.45996Z" fill="#6763FF"/>
<path d="M3.40095 68.8998H0V51.0997C0 49.6397 0.66021 48.6997 1.78052 48.6997C2.90082 48.6997 3.66097 49.5197 3.66097 51.0597C3.66097 55.0597 1.18032 57.5597 1.18032 67.0598C2.34063 62.3398 8.28226 56.7397 11.6232 56.7397C12.1538 56.7397 12.6626 56.9505 13.0378 57.3255C13.413 57.7006 13.6238 58.2093 13.6238 58.7398C13.6238 60.1998 12.0233 60.8797 11.103 61.1798C3.10082 63.8798 2.44068 65.9998 2.1406 67.5198C13.5237 67.5198 16.3044 63.5198 20.5256 63.5198C23.6864 63.5198 24.7467 68.9198 18.7651 68.9198L3.40095 68.8998Z" fill="#6763FF"/>
<path d="M3.40095 71.2016H0V89.0017C0 90.4817 0.66021 91.4217 1.78052 91.4217C2.90082 91.4217 3.66097 90.6017 3.66097 89.0417C3.66097 85.0416 1.18032 82.5416 1.18032 73.0416C2.34063 77.7416 8.28226 83.3416 11.6232 83.3416C12.1538 83.3416 12.6626 83.1309 13.0378 82.7558C13.413 82.3808 13.6238 81.8721 13.6238 81.3416C13.6238 79.9016 12.0233 79.2216 11.103 78.9016C3.10082 76.2016 2.44068 74.0816 2.1406 72.5816C13.5237 72.5816 16.3044 76.5816 20.5256 76.5816C23.6864 76.5816 24.7467 71.1816 18.7651 71.1816L3.40095 71.2016Z" fill="#6763FF"/>
<path d="M136.619 68.8998H140V51.0997C140 49.6397 139.34 48.6997 138.219 48.6997C137.099 48.6997 136.339 49.5197 136.339 51.0597C136.339 55.0597 138.82 57.5597 138.82 67.0598C137.679 62.3398 131.738 56.7397 128.377 56.7397C127.846 56.7397 127.337 56.9505 126.962 57.3255C126.587 57.7006 126.376 58.2093 126.376 58.7398C126.376 60.1998 127.977 60.8797 128.897 61.1798C136.899 63.8798 137.559 65.9998 137.859 67.5198C126.496 67.5198 123.695 63.5198 119.494 63.5198C116.333 63.5198 115.253 68.9198 121.235 68.9198L136.619 68.8998Z" fill="#6763FF"/>
<path d="M136.619 71.2016H140V89.0017C140 90.4817 139.34 91.4217 138.219 91.4217C137.099 91.4217 136.339 90.6017 136.339 89.0417C136.339 85.0416 138.82 82.5416 138.82 73.0416C137.679 77.7416 131.738 83.3416 128.377 83.3416C127.846 83.3416 127.337 83.1309 126.962 82.7558C126.587 82.3808 126.376 81.8721 126.376 81.3416C126.376 79.9016 127.977 79.2216 128.897 78.9016C136.899 76.2016 137.559 74.0816 137.859 72.5816C126.496 72.5816 123.695 76.5816 119.494 76.5816C116.333 76.5816 115.253 71.1816 121.235 71.1816L136.619 71.2016Z" fill="#6763FF"/>
</svg>
