<svg width="140" height="140" viewBox="0 0 140 140" fill="none" xmlns="http://www.w3.org/2000/svg">
<path d="M67.286 68.4757C68.7048 67.7082 69.2282 65.9284 68.4552 64.5003C67.6822 63.0723 65.9055 62.5368 64.4867 63.3043C63.068 64.0719 62.5446 65.8517 63.3176 67.2797C64.0906 68.7078 65.8673 69.2433 67.286 68.4757Z" fill="#E492F8"/>
<path d="M76.4715 67.2528C77.2437 65.8243 76.7194 64.0446 75.3003 63.2778C73.8812 62.511 72.1046 63.0476 71.3323 64.476C70.5601 65.9044 71.0845 67.684 72.5036 68.4508C73.9228 69.2175 75.6992 68.6812 76.4715 67.2528Z" fill="#E492F8"/>
<path d="M75.432 76.6389C76.8508 75.8714 77.3744 74.0915 76.6014 72.6634C75.8284 71.2354 74.0515 70.7 72.6327 71.4675C71.214 72.2351 70.6906 74.0149 71.4636 75.4429C72.2366 76.871 74.0133 77.4065 75.432 76.6389Z" fill="#E492F8"/>
<path d="M68.3377 75.4347C69.1099 74.0063 68.5855 72.2267 67.1664 71.46C65.7473 70.6932 63.9708 71.2295 63.1986 72.658C62.4263 74.0864 62.9507 75.8659 64.3699 76.6327C65.789 77.3995 67.5654 76.8632 68.3377 75.4347Z" fill="#E492F8"/>
<path d="M102.93 8.31962L93.8472 13.5996L96.3879 0.839478L102.93 8.31962Z" fill="#E492F8"/>
<path d="M127.498 44.1006L129.658 34.8406L139.781 38.5807L127.498 44.1006Z" fill="#E492F8"/>
<path d="M115.233 11.6193L103.33 10.4993L111.672 0.459351L115.233 11.6193Z" fill="#E492F8"/>
<path d="M139.54 24.3592L129.017 33.2393L128.197 22.5392L139.54 24.3592Z" fill="#E492F8"/>
<path d="M134.16 5.90039L125.937 22.2605L117.175 12.1004L134.16 5.90039Z" fill="#E492F8"/>
<path d="M81.8433 58.1794L88.6654 64.9995C99.4085 63.3195 110.672 60.9995 120.255 51.1394C126.837 44.2794 131.078 30.6593 120.255 19.8193C108.991 8.57921 95.7674 13.2392 88.9054 19.8193C79.0025 29.2993 76.722 40.6394 75.0215 51.3794L81.8433 58.1794ZM96.3676 34.1793L88.8854 40.8794L87.385 26.7193L96.3676 34.1793ZM99.9487 24.3193C99.7612 24.5255 99.5325 24.6903 99.2776 24.8031C99.0227 24.9158 98.7471 24.9741 98.4683 24.9741C98.1895 24.9741 97.9137 24.9158 97.6587 24.8031C97.4038 24.6903 97.1754 24.5255 96.9879 24.3193C96.5957 23.9225 96.3756 23.3871 96.3756 22.8293C96.3756 22.2714 96.5957 21.7361 96.9879 21.3393C97.1754 21.133 97.4038 20.9682 97.6587 20.8555C97.9137 20.7427 98.1895 20.6845 98.4683 20.6845C98.7471 20.6845 99.0227 20.7427 99.2776 20.8555C99.5325 20.9682 99.7612 21.133 99.9487 21.3393C100.152 21.5368 100.314 21.7731 100.424 22.0342C100.534 22.2953 100.591 22.5759 100.591 22.8593C100.591 23.1427 100.534 23.4232 100.424 23.6843C100.314 23.9454 100.152 24.1817 99.9487 24.3793V24.3193ZM117.254 26.7393L109.251 32.7393L109.131 18.4993L117.254 26.7393ZM123.676 30.9393C123.488 31.1456 123.259 31.3103 123.005 31.4231C122.75 31.5359 122.474 31.5941 122.195 31.5941C121.916 31.5941 121.641 31.5359 121.386 31.4231C121.131 31.3103 120.902 31.1456 120.715 30.9393C120.323 30.5425 120.103 30.0071 120.103 29.4493C120.103 28.8915 120.323 28.3561 120.715 27.9593C120.902 27.7531 121.131 27.5883 121.386 27.4755C121.641 27.3628 121.916 27.3045 122.195 27.3045C122.474 27.3045 122.75 27.3628 123.005 27.4755C123.259 27.5883 123.488 27.7531 123.676 27.9593C123.879 28.1569 124.041 28.3932 124.151 28.6543C124.261 28.9153 124.318 29.1959 124.318 29.4793C124.318 29.7627 124.261 30.0433 124.151 30.3043C124.041 30.5654 123.879 30.8017 123.676 30.9993V30.9393ZM114.653 47.1594L109.992 38.2593L123.996 40.2594L114.653 47.1594ZM108.811 50.4994C109.208 50.1073 109.744 49.8875 110.302 49.8875C110.86 49.8875 111.395 50.1073 111.792 50.4994C111.999 50.6869 112.163 50.9153 112.276 51.1702C112.389 51.4251 112.447 51.7007 112.447 51.9794C112.447 52.2581 112.389 52.5337 112.276 52.7886C112.163 53.0435 111.999 53.272 111.792 53.4594C111.395 53.8515 110.86 54.0713 110.302 54.0713C109.744 54.0713 109.208 53.8515 108.811 53.4594C108.615 53.2726 108.458 53.0477 108.351 52.7984C108.244 52.5491 108.189 52.2807 108.189 52.0094C108.189 51.7381 108.244 51.4697 108.351 51.2204C108.458 50.9711 108.615 50.7462 108.811 50.5594V50.4994ZM106.811 44.2394L97.248 47.3794L101.569 33.7993L106.811 44.2394ZM87.185 51.9994L100.649 56.6394L90.0857 61.6195L87.185 51.9994ZM82.9838 49.2794C82.697 49.54 82.3407 49.7117 81.9581 49.7737C81.5755 49.8356 81.183 49.7852 80.8286 49.6284C80.4742 49.4716 80.1731 49.2153 79.9616 48.8907C79.7502 48.566 79.6376 48.1868 79.6376 47.7994C79.6376 47.4119 79.7502 47.0328 79.9616 46.7081C80.1731 46.3835 80.4742 46.1272 80.8286 45.9704C81.183 45.8136 81.5755 45.7632 81.9581 45.8251C82.3407 45.8871 82.697 46.0588 82.9838 46.3194C83.1917 46.5127 83.3561 46.748 83.4661 47.0098C83.576 47.2715 83.629 47.5537 83.6214 47.8375C83.6138 48.1213 83.5459 48.4002 83.4221 48.6557C83.2984 48.9112 83.1217 49.1375 82.9037 49.3194L82.9838 49.2794Z" fill="#E492F8"/>
<path d="M37.0513 8.31962L46.154 13.5996L43.5932 0.839478L37.0513 8.31962Z" fill="#E492F8"/>
<path d="M12.5038 44.1006L10.3432 34.8406L0.220215 38.5807L12.5038 44.1006Z" fill="#E492F8"/>
<path d="M24.7456 11.6193L36.6491 10.4993L28.3066 0.459351L24.7456 11.6193Z" fill="#E492F8"/>
<path d="M0.458984 24.3592L10.9821 33.2393L11.7824 22.5392L0.458984 24.3592Z" fill="#E492F8"/>
<path d="M5.82129 5.90039L14.0437 22.2605L22.8263 12.1004L5.82129 5.90039Z" fill="#E492F8"/>
<path d="M64.9785 51.359C63.278 40.619 60.9772 29.3589 51.1143 19.7989C44.2323 13.2389 31.1086 8.57883 19.7653 19.7989C8.92212 30.6389 13.1634 44.259 19.7653 51.119C29.2481 61.1191 40.6112 63.2991 51.3544 64.9791L58.1965 58.1591L64.9785 51.359ZM52.5947 26.7789L51.1143 40.939L43.6121 34.239L52.5947 26.7789ZM40.0312 21.3989C40.3256 21.1066 40.6999 20.9081 41.107 20.8282C41.5141 20.7483 41.9355 20.7908 42.3185 20.9501C42.7015 21.1095 43.0288 21.3787 43.259 21.7237C43.4892 22.0687 43.6121 22.4742 43.6121 22.8889C43.6121 23.3036 43.4892 23.7091 43.259 24.0541C43.0288 24.3991 42.7015 24.6683 42.3185 24.8277C41.9355 24.987 41.5141 25.0295 41.107 24.9496C40.6999 24.8697 40.3256 24.6712 40.0312 24.3789C39.6391 23.9821 39.419 23.4467 39.419 22.8889C39.419 22.3311 39.6391 21.7957 40.0312 21.3989ZM30.9485 18.5189L30.8283 32.7589L22.826 26.7589L30.9485 18.5189ZM16.3041 28.0189C16.5984 27.7267 16.9727 27.5281 17.3798 27.4482C17.7869 27.3684 18.2086 27.4108 18.5916 27.5702C18.9746 27.7295 19.3019 27.9987 19.5321 28.3437C19.7623 28.6888 19.885 29.0942 19.885 29.5089C19.885 29.9237 19.7623 30.3291 19.5321 30.6741C19.3019 31.0192 18.9746 31.2883 18.5916 31.4477C18.2086 31.6071 17.7869 31.6495 17.3798 31.5696C16.9727 31.4898 16.5984 31.2912 16.3041 30.9989C16.1069 30.802 15.9505 30.5682 15.8437 30.3108C15.737 30.0535 15.6821 29.7776 15.6821 29.4989C15.6821 29.2203 15.737 28.9444 15.8437 28.687C15.9505 28.4296 16.1069 28.1958 16.3041 27.9989V28.0189ZM15.9041 40.359L30.0083 38.359L25.3468 47.259L15.9041 40.359ZM31.1685 53.5191C30.8817 53.7797 30.5254 53.9514 30.1428 54.0133C29.7603 54.0753 29.368 54.0248 29.0136 53.868C28.6592 53.7113 28.3579 53.455 28.1464 53.1303C27.9349 52.8056 27.8223 52.4265 27.8223 52.039C27.8223 51.6516 27.9349 51.2725 28.1464 50.9478C28.3579 50.6231 28.6592 50.3668 29.0136 50.21C29.368 50.0533 29.7603 50.0028 30.1428 50.0648C30.5254 50.1267 30.8817 50.2984 31.1685 50.559C31.3748 50.7465 31.5398 50.975 31.6526 51.2298C31.7654 51.4847 31.8235 51.7603 31.8235 52.039C31.8235 52.3177 31.7654 52.5934 31.6526 52.8482C31.5398 53.1031 31.3748 53.3316 31.1685 53.5191ZM38.4707 33.859L42.7921 47.439L33.2492 44.299L38.4707 33.859ZM49.9741 61.6591L39.4109 56.6791L52.8748 52.039L49.9741 61.6591ZM57.076 46.359C57.4729 45.967 58.0084 45.7471 58.5664 45.7471C59.1244 45.7471 59.6599 45.967 60.0569 46.359C60.2632 46.5465 60.4281 46.775 60.5409 47.0298C60.6537 47.2847 60.7118 47.5603 60.7118 47.839C60.7118 48.1177 60.6537 48.3933 60.5409 48.6482C60.4281 48.9031 60.2632 49.1316 60.0569 49.319C59.6599 49.7111 59.1244 49.9309 58.5664 49.9309C58.0084 49.9309 57.4729 49.7111 57.076 49.319C56.8759 49.1247 56.7187 48.8907 56.6145 48.632C56.5102 48.3733 56.4612 48.0956 56.4706 47.8169C56.48 47.5381 56.5476 47.2644 56.6692 47.0134C56.7907 46.7623 56.9634 46.5394 57.1761 46.359H57.076Z" fill="#E492F8"/>
<path d="M102.93 131.801L93.8472 126.521L96.3879 139.281L102.93 131.801Z" fill="#E492F8"/>
<path d="M127.498 96.0403L129.658 105.28L139.781 101.56L127.498 96.0403Z" fill="#E492F8"/>
<path d="M115.233 128.501L103.33 129.621L111.672 139.661L115.233 128.501Z" fill="#E492F8"/>
<path d="M139.54 115.759L129.017 106.879L128.197 117.579L139.54 115.759Z" fill="#E492F8"/>
<path d="M134.16 134.219L125.957 117.859L117.175 128.039L134.16 134.219Z" fill="#E492F8"/>
<path d="M75.0029 88.7401C76.7034 99.4802 79.004 110.74 88.8869 120.3C95.7489 126.88 108.893 131.52 120.236 120.3C131.079 109.46 126.838 95.8402 120.236 88.9801C110.753 79.0801 99.3899 76.8201 88.6468 75.1201L81.8247 81.9401L75.0029 88.7401ZM87.3864 113.32L88.8869 99.1602L96.369 105.86L87.3864 113.32ZM99.9502 118.7C99.7627 118.907 99.534 119.071 99.2791 119.184C99.0241 119.297 98.7485 119.355 98.4697 119.355C98.191 119.355 97.9151 119.297 97.6602 119.184C97.4052 119.071 97.1768 118.907 96.9893 118.7C96.5972 118.303 96.3771 117.768 96.3771 117.21C96.3771 116.652 96.5972 116.117 96.9893 115.72C97.3846 115.328 97.9197 115.108 98.4768 115.11C99.034 115.112 99.5675 115.335 99.9602 115.73C100.353 116.125 100.572 116.66 100.57 117.217C100.569 117.774 100.345 118.308 99.9502 118.7ZM109.033 121.58L109.153 107.34L117.155 113.34L109.033 121.58ZM123.677 112.08C123.39 112.341 123.034 112.513 122.651 112.574C122.269 112.636 121.877 112.586 121.522 112.429C121.168 112.272 120.866 112.016 120.655 111.691C120.443 111.367 120.331 110.988 120.331 110.6C120.331 110.213 120.443 109.834 120.655 109.509C120.866 109.184 121.168 108.928 121.522 108.771C121.877 108.614 122.269 108.564 122.651 108.626C123.034 108.688 123.39 108.86 123.677 109.12C123.871 109.307 124.025 109.53 124.13 109.778C124.235 110.025 124.289 110.291 124.289 110.56C124.289 110.829 124.235 111.095 124.13 111.343C124.025 111.59 123.871 111.814 123.677 112V112.08ZM124.097 99.7402L110.093 101.74L114.755 92.8401L124.097 99.7402ZM108.813 86.5801C109.107 86.2879 109.481 86.0893 109.888 86.0094C110.295 85.9296 110.717 85.972 111.1 86.1313C111.483 86.2907 111.81 86.5599 112.041 86.9049C112.271 87.2499 112.394 87.6554 112.394 88.0701C112.394 88.4849 112.271 88.8903 112.041 89.2353C111.81 89.5804 111.483 89.8495 111.1 90.0089C110.717 90.1683 110.295 90.2107 109.888 90.1308C109.481 90.051 109.107 89.8524 108.813 89.5601C108.421 89.1633 108.201 88.628 108.201 88.0701C108.201 87.5123 108.421 86.9769 108.813 86.5801ZM101.511 106.24L97.1893 92.6602L106.752 95.8002L101.511 106.24ZM90.0073 78.4601L100.57 83.4201L87.1864 88.0001L90.0073 78.4601ZM82.9051 93.7602C82.7176 93.9664 82.489 94.1312 82.234 94.2439C81.9791 94.3567 81.7035 94.415 81.4247 94.415C81.1459 94.415 80.8704 94.3567 80.6154 94.2439C80.3605 94.1312 80.1318 93.9664 79.9443 93.7602C79.5521 93.3633 79.3323 92.828 79.3323 92.2701C79.3323 91.7123 79.5521 91.177 79.9443 90.7801C80.1318 90.5739 80.3605 90.4091 80.6154 90.2964C80.8704 90.1836 81.1459 90.1253 81.4247 90.1253C81.7035 90.1253 81.9791 90.1836 82.234 90.2964C82.489 90.4091 82.7176 90.5739 82.9051 90.7801C83.2973 91.177 83.5174 91.7123 83.5174 92.2701C83.5174 92.828 83.2973 93.3633 82.9051 93.7602Z" fill="#E492F8"/>
<path d="M37.0513 131.801L46.154 126.521L43.5932 139.281L37.0513 131.801Z" fill="#E492F8"/>
<path d="M12.5038 96.0403L10.3432 105.28L0.220215 101.56L12.5038 96.0403Z" fill="#E492F8"/>
<path d="M24.7456 128.501L36.6491 129.621L28.3066 139.661L24.7456 128.501Z" fill="#E492F8"/>
<path d="M0.458984 115.759L10.9821 106.879L11.7824 117.579L0.458984 115.759Z" fill="#E492F8"/>
<path d="M5.82129 134.219L14.0437 117.859L22.8263 128.039L5.82129 134.219Z" fill="#E492F8"/>
<path d="M58.1561 82.0005L51.314 75.1804C40.5709 76.8804 29.3078 79.1805 19.725 89.0405C13.163 95.9005 8.92179 109.521 19.725 120.361C30.9682 131.601 44.1919 126.961 51.074 120.361C60.9568 110.901 63.2376 99.5405 64.9381 88.8005L58.1561 82.0005ZM43.6118 106.001L51.114 99.3005L52.5944 113.461L43.6118 106.001ZM40.0309 115.861C40.3253 115.568 40.6996 115.37 41.1067 115.29C41.5138 115.21 41.9352 115.252 42.3182 115.412C42.7012 115.571 43.0285 115.84 43.2587 116.185C43.4889 116.53 43.6118 116.936 43.6118 117.351C43.6118 117.765 43.4889 118.171 43.2587 118.516C43.0285 118.861 42.7012 119.13 42.3182 119.289C41.9352 119.449 41.5138 119.491 41.1067 119.411C40.6996 119.331 40.3253 119.133 40.0309 118.841C39.8151 118.642 39.6428 118.401 39.5249 118.132C39.4071 117.864 39.3462 117.574 39.3462 117.281C39.3462 116.987 39.4071 116.697 39.5249 116.429C39.6428 116.16 39.8151 115.919 40.0309 115.721V115.861ZM22.7258 113.441L30.7282 107.441L30.8481 121.681L22.7258 113.441ZM16.3038 109.261C16.7007 108.869 17.2362 108.649 17.7942 108.649C18.3522 108.649 18.8879 108.869 19.2849 109.261C19.4912 109.448 19.6559 109.677 19.7687 109.931C19.8815 110.186 19.9399 110.462 19.9399 110.741C19.9399 111.019 19.8815 111.295 19.7687 111.55C19.6559 111.805 19.4912 112.033 19.2849 112.221C18.8879 112.613 18.3522 112.833 17.7942 112.833C17.2362 112.833 16.7007 112.613 16.3038 112.221C16.0737 112.033 15.8883 111.797 15.7609 111.529C15.6336 111.26 15.5675 110.967 15.5675 110.671C15.5675 110.374 15.6336 110.081 15.7609 109.813C15.8883 109.545 16.0737 109.308 16.3038 109.121V109.261ZM25.3465 93.0205L30.008 101.921L15.9038 99.9206L25.3465 93.0205ZM31.1682 89.7005C30.9807 89.9067 30.7521 90.0715 30.4971 90.1843C30.2422 90.297 29.9666 90.3553 29.6878 90.3553C29.409 90.3553 29.1332 90.297 28.8783 90.1843C28.6233 90.0715 28.3949 89.9067 28.2074 89.7005C27.8152 89.3037 27.5952 88.7683 27.5952 88.2105C27.5952 87.6527 27.8152 87.1173 28.2074 86.7205C28.3949 86.5142 28.6233 86.3494 28.8783 86.2367C29.1332 86.1239 29.409 86.0657 29.6878 86.0657C29.9666 86.0657 30.2422 86.1239 30.4971 86.2367C30.7521 86.3494 30.9807 86.5142 31.1682 86.7205C31.5197 87.11 31.7143 87.6159 31.7143 88.1405C31.7143 88.6651 31.5197 89.171 31.1682 89.5605V89.7005ZM33.1688 95.9405L42.7117 92.8005L38.3903 106.381L33.1688 95.9405ZM52.7947 88.2205L39.3305 83.5605L49.8937 78.6005L52.7947 88.2205ZM56.9959 90.9205C57.2902 90.6283 57.6645 90.4297 58.0716 90.3498C58.4787 90.2699 58.9001 90.3124 59.2831 90.4717C59.6661 90.6311 59.9934 90.9003 60.2236 91.2453C60.4538 91.5904 60.5767 91.9958 60.5767 92.4105C60.5767 92.8252 60.4538 93.2307 60.2236 93.5757C59.9934 93.9207 59.6661 94.1899 59.2831 94.3493C58.9001 94.5086 58.4787 94.5511 58.0716 94.4712C57.6645 94.3914 57.2902 94.1928 56.9959 93.9005C56.791 93.6898 56.6321 93.4388 56.5294 93.1634C56.4268 92.888 56.3826 92.5943 56.3995 92.3009C56.4164 92.0075 56.4942 91.7209 56.6278 91.4592C56.7615 91.1974 56.9481 90.9663 57.1758 90.7805L56.9959 90.9205Z" fill="#E492F8"/>
<path d="M68.8396 136.64V140H51.0346C49.5742 140 48.6338 139.36 48.6338 138.22C48.6338 137.08 49.4541 136.36 50.9946 136.36C54.8957 136.36 57.4965 138.84 66.9993 138.84C62.2779 137.68 56.6762 131.74 56.6762 128.4C56.6762 127.869 56.8869 127.361 57.262 126.986C57.6372 126.611 58.1462 126.4 58.6768 126.4C60.1372 126.4 60.8173 128 61.1174 128.92C63.8182 136.92 65.9389 137.58 67.4594 137.88C67.4594 126.5 63.4582 123.72 63.4582 119.5C63.4582 116.34 68.8597 115.28 68.8597 121.26L68.8396 136.64Z" fill="#E492F8"/>
<path d="M71.1812 136.64V140H88.9864C90.4668 140 91.407 139.36 91.407 138.22C91.407 137.08 90.5869 136.36 89.0265 136.36C85.0253 136.36 82.5246 138.84 73.0218 138.84C77.7232 137.68 83.3446 131.74 83.3446 128.4C83.3446 127.869 83.1339 127.361 82.7588 126.986C82.3836 126.611 81.8746 126.4 81.344 126.4C79.8836 126.4 79.2035 128 78.8834 128.92C76.1826 136.92 74.0819 137.58 72.5614 137.88C72.5614 126.5 76.5626 123.72 76.5626 119.5C76.5626 116.34 71.1611 115.28 71.1611 121.26L71.1812 136.64Z" fill="#E492F8"/>
<path d="M68.8396 3.46002V0H51.0346C49.5742 0 48.6338 0.660002 48.6338 1.78001C48.6338 2.90001 49.4541 3.66002 50.9946 3.66002C54.8957 3.66002 57.4965 1.18 66.9993 1.18C62.2779 2.32 56.6762 8.26004 56.6762 11.6201C56.6762 12.1505 56.8869 12.6592 57.262 13.0343C57.6372 13.4094 58.1462 13.6201 58.6768 13.6201C60.1372 13.6201 60.8173 12.0001 61.1174 11.1001C63.8182 3.10002 65.9389 2.44001 67.4594 2.12001C67.4594 13.5001 63.4582 16.2801 63.4582 20.5001C63.4582 23.6601 68.8597 24.7201 68.8597 18.7601L68.8396 3.46002Z" fill="#E492F8"/>
<path d="M71.1812 3.46002V0H88.9864C90.4668 0 91.407 0.660002 91.407 1.78001C91.407 2.90001 90.5869 3.66002 89.0265 3.66002C85.0253 3.66002 82.5246 1.18 73.0218 1.18C77.7232 2.32 83.3446 8.26004 83.3446 11.6201C83.3446 12.1505 83.1339 12.6592 82.7588 13.0343C82.3836 13.4094 81.8746 13.6201 81.344 13.6201C79.8836 13.6201 79.2035 12.0001 78.8834 11.1001C76.1826 3.10002 74.0819 2.44001 72.5614 2.12001C72.5614 13.5001 76.5626 16.2801 76.5626 20.5001C76.5626 23.6601 71.1611 24.7201 71.1611 18.7601L71.1812 3.46002Z" fill="#E492F8"/>
<path d="M3.38087 68.8989H0V51.0989C0 49.6389 0.660222 48.6989 1.78055 48.6989C2.90088 48.6989 3.66098 49.5189 3.66098 51.0589C3.66098 55.0589 1.18028 57.5589 1.18028 67.0589C2.32061 62.3389 8.26229 56.7389 11.6233 56.7389C12.1539 56.7389 12.6628 56.9496 13.038 57.3247C13.4132 57.6998 13.6239 58.2085 13.6239 58.7389C13.6239 60.1989 12.0234 60.8789 11.1031 61.1789C3.10076 63.8789 2.44061 65.9989 2.14052 67.519C13.5038 67.519 16.2848 63.5189 20.506 63.5189C23.6669 63.5189 24.7472 68.919 18.7655 68.919L3.38087 68.8989Z" fill="#E492F8"/>
<path d="M3.38087 71.1998H0V88.9998C0 90.4799 0.660222 91.4199 1.78055 91.4199C2.90088 91.4199 3.66098 90.5999 3.66098 89.0399C3.66098 85.0398 1.18028 82.5398 1.18028 73.0398C2.32061 77.7398 8.26229 83.3398 11.6233 83.3398C12.1539 83.3398 12.6628 83.1291 13.038 82.754C13.4132 82.3789 13.6239 81.8702 13.6239 81.3398C13.6239 79.8998 12.0234 79.2198 11.1031 78.8998C3.10076 76.1998 2.44061 74.0798 2.14052 72.5798C13.5038 72.5798 16.2848 76.5798 20.506 76.5798C23.6669 76.5798 24.7472 71.1797 18.7655 71.1797L3.38087 71.1998Z" fill="#E492F8"/>
<path d="M136.599 68.8989H140V51.0989C140 49.6389 139.34 48.6989 138.2 48.6989C137.059 48.6989 136.339 49.5189 136.339 51.0589C136.339 55.0589 138.82 57.5589 138.82 67.0589C137.66 62.3389 131.718 56.7389 128.377 56.7389C127.846 56.7389 127.337 56.9496 126.962 57.3247C126.587 57.6998 126.376 58.2085 126.376 58.7389C126.376 60.1989 127.977 60.8789 128.897 61.1789C136.899 63.8789 137.559 65.9989 137.859 67.519C126.476 67.519 123.695 63.5189 119.474 63.5189C116.313 63.5189 115.253 68.919 121.235 68.919L136.599 68.8989Z" fill="#E492F8"/>
<path d="M136.599 71.1998H140V88.9998C140 90.4799 139.34 91.4199 138.2 91.4199C137.059 91.4199 136.339 90.5999 136.339 89.0399C136.339 85.0398 138.82 82.5398 138.82 73.0398C137.66 77.7398 131.718 83.3398 128.377 83.3398C127.846 83.3398 127.337 83.1291 126.962 82.754C126.587 82.3789 126.376 81.8702 126.376 81.3398C126.376 79.8998 127.977 79.2198 128.897 78.8998C136.899 76.1998 137.559 74.0798 137.859 72.5798C126.476 72.5798 123.695 76.5798 119.474 76.5798C116.313 76.5798 115.253 71.1797 121.235 71.1797L136.599 71.1998Z" fill="#E492F8"/>
</svg>
